<?xml version="1.0" encoding="utf-8"?>
<!-- Generator: Adobe Illustrator 25.2.3, SVG Export Plug-In . SVG Version: 6.00 Build 0)  -->
<svg version="1.1" id="Layer_1" xmlns:blush="http://design.blush"
	 xmlns="http://www.w3.org/2000/svg" xmlns:xlink="http://www.w3.org/1999/xlink" x="0px" y="0px" viewBox="0 0 2045 1630.6"
	 style="enable-background:new 0 0 2045 1630.6;" xml:space="preserve">
<style type="text/css">
	.st0{fill-rule:evenodd;clip-rule:evenodd;fill:#A57420;}
	.st1{fill-rule:evenodd;clip-rule:evenodd;fill:#B6CCFC;}
	.st2{fill-rule:evenodd;clip-rule:evenodd;fill:#21211D;}
	.st3{fill-rule:evenodd;clip-rule:evenodd;fill:#CFDDFD;}
	.st4{fill-rule:evenodd;clip-rule:evenodd;fill:#D6A47F;}
	.st5{fill-rule:evenodd;clip-rule:evenodd;fill:#74262E;}
	.st6{filter:url(#Adobe_OpacityMaskFilter);}
	.st7{fill-rule:evenodd;clip-rule:evenodd;fill:#FFFFFF;}
	.st8{mask:url(#wall-objectsbook-shelf-mask-2_1_);fill-rule:evenodd;clip-rule:evenodd;fill:#2E4C9E;}
	.st9{filter:url(#Adobe_OpacityMaskFilter_1_);}
	.st10{mask:url(#wall-objectsbook-shelf-mask-2_2_);fill-rule:evenodd;clip-rule:evenodd;fill:#21211D;}
	.st11{filter:url(#Adobe_OpacityMaskFilter_2_);}
	.st12{mask:url(#wall-objectsbook-shelf-mask-2_3_);fill-rule:evenodd;clip-rule:evenodd;fill:#FFFFFF;}
	.st13{filter:url(#Adobe_OpacityMaskFilter_3_);}
	.st14{mask:url(#wall-objectsbook-shelf-mask-2_4_);fill-rule:evenodd;clip-rule:evenodd;fill:#FFFFFF;}
	.st15{filter:url(#Adobe_OpacityMaskFilter_4_);}
	.st16{mask:url(#wall-objectsbook-shelf-mask-2_5_);fill-rule:evenodd;clip-rule:evenodd;fill:#EDC829;}
	.st17{filter:url(#Adobe_OpacityMaskFilter_5_);}
	.st18{mask:url(#wall-objectsbook-shelf-mask-2_6_);fill-rule:evenodd;clip-rule:evenodd;fill:#21211D;}
	.st19{filter:url(#Adobe_OpacityMaskFilter_6_);}
	.st20{mask:url(#wall-objectsbook-shelf-mask-2_7_);fill-rule:evenodd;clip-rule:evenodd;fill:#FFFFFF;}
	.st21{filter:url(#Adobe_OpacityMaskFilter_7_);}
	.st22{mask:url(#wall-objectsbook-shelf-mask-2_8_);fill-rule:evenodd;clip-rule:evenodd;fill:#FFFFFF;}
	.st23{filter:url(#Adobe_OpacityMaskFilter_8_);}
	.st24{mask:url(#wall-objectsbook-shelf-mask-2_9_);fill-rule:evenodd;clip-rule:evenodd;fill:#D5962F;}
	.st25{filter:url(#Adobe_OpacityMaskFilter_9_);}
	.st26{mask:url(#wall-objectsbook-shelf-mask-2_10_);fill-rule:evenodd;clip-rule:evenodd;fill:#21211D;}
	.st27{filter:url(#Adobe_OpacityMaskFilter_10_);}
	.st28{mask:url(#wall-objectsbook-shelf-mask-2_11_);fill-rule:evenodd;clip-rule:evenodd;fill:#FFFFFF;}
	.st29{filter:url(#Adobe_OpacityMaskFilter_11_);}
	.st30{mask:url(#wall-objectsbook-shelf-mask-2_12_);fill-rule:evenodd;clip-rule:evenodd;fill:#FFFFFF;}
	.st31{filter:url(#Adobe_OpacityMaskFilter_12_);}
	.st32{mask:url(#wall-objectsbook-shelf-mask-2_13_);fill-rule:evenodd;clip-rule:evenodd;fill:#FFFFFF;}
	.st33{filter:url(#Adobe_OpacityMaskFilter_13_);}
	.st34{mask:url(#wall-objectsbook-shelf-mask-2_14_);fill-rule:evenodd;clip-rule:evenodd;fill:#FFFFFF;}
	.st35{filter:url(#Adobe_OpacityMaskFilter_14_);}
	.st36{mask:url(#wall-objectsbook-shelf-mask-2_15_);fill-rule:evenodd;clip-rule:evenodd;fill:#FF6D7B;}
	.st37{filter:url(#Adobe_OpacityMaskFilter_15_);}
	.st38{mask:url(#wall-objectsbook-shelf-mask-2_16_);fill-rule:evenodd;clip-rule:evenodd;fill:#FF6D7B;}
	.st39{filter:url(#Adobe_OpacityMaskFilter_16_);}
	.st40{mask:url(#wall-objectsbook-shelf-mask-2_17_);fill-rule:evenodd;clip-rule:evenodd;fill:#21211D;}
	.st41{filter:url(#Adobe_OpacityMaskFilter_17_);}
	.st42{mask:url(#wall-objectsbook-shelf-mask-4_1_);fill-rule:evenodd;clip-rule:evenodd;fill:#2E4C9E;}
	.st43{filter:url(#Adobe_OpacityMaskFilter_18_);}
	.st44{mask:url(#wall-objectsbook-shelf-mask-6_1_);fill-rule:evenodd;clip-rule:evenodd;fill:#F4BF8E;}
	.st45{filter:url(#Adobe_OpacityMaskFilter_19_);}
	.st46{mask:url(#wall-objectsbook-shelf-mask-6_2_);fill-rule:evenodd;clip-rule:evenodd;fill:#F4BF8E;}
	.st47{fill-rule:evenodd;clip-rule:evenodd;fill:#F62A26;}
	.st48{fill-rule:evenodd;clip-rule:evenodd;fill:#F98ADF;}
	.st49{opacity:5.900000e-02;fill-rule:evenodd;clip-rule:evenodd;fill:#343434;enable-background:new    ;}
	.st50{filter:url(#Adobe_OpacityMaskFilter_20_);}
	.st51{mask:url(#sitting-on-chairpants-4-mask-2_1_);fill-rule:evenodd;clip-rule:evenodd;fill:#EDE8D6;}
	.st52{fill-rule:evenodd;clip-rule:evenodd;fill:#EDE8D6;}
	.st53{fill-rule:evenodd;clip-rule:evenodd;fill:#FFDDBA;}
	.st54{fill-rule:evenodd;clip-rule:evenodd;fill:#2E4C9E;}
	.st55{filter:url(#Adobe_OpacityMaskFilter_21_);}
	.st56{mask:url(#standing-upperusing-laptop-2-mask-2_1_);fill-rule:evenodd;clip-rule:evenodd;fill:#4965CC;}
	.st57{filter:url(#Adobe_OpacityMaskFilter_22_);}
	.st58{mask:url(#headlong-ponytail-mask-2_1_);fill-rule:evenodd;clip-rule:evenodd;fill:#FFDDBA;}
	.st59{fill-rule:evenodd;clip-rule:evenodd;fill:#E8E1E1;}
	.st60{fill-rule:evenodd;clip-rule:evenodd;fill:#EDC829;}
	.st61{filter:url(#Adobe_OpacityMaskFilter_23_);}
	.st62{mask:url(#expressionwink-mask-2_1_);fill-rule:evenodd;clip-rule:evenodd;fill:#FFFFFF;}
	.st63{filter:url(#Adobe_OpacityMaskFilter_24_);}
	.st64{mask:url(#expressionwink-mask-4_1_);fill-rule:evenodd;clip-rule:evenodd;fill:#21211D;}
	.st65{filter:url(#Adobe_OpacityMaskFilter_25_);}
	.st66{mask:url(#expressionwink-mask-6_1_);fill-rule:evenodd;clip-rule:evenodd;fill:#21211D;}
	.st67{fill:#E8E1E1;fill-opacity:0;}
	.st68{fill-rule:evenodd;clip-rule:evenodd;fill:#CE8D23;}
	.st69{fill-rule:evenodd;clip-rule:evenodd;fill:#066952;}
	.st70{filter:url(#Adobe_OpacityMaskFilter_26_);}
	.st71{mask:url(#small-objectsbaby-cactus-mask-2_1_);fill-rule:evenodd;clip-rule:evenodd;fill:#F73132;}
	.st72{filter:url(#Adobe_OpacityMaskFilter_27_);}
	.st73{mask:url(#mastersceneworking-from-home-mask-32_1_);fill-rule:evenodd;clip-rule:evenodd;fill:#B6CCFC;}
	.st74{filter:url(#Adobe_OpacityMaskFilter_28_);}
	.st75{mask:url(#mastersceneworking-from-home-mask-34_1_);fill-rule:evenodd;clip-rule:evenodd;fill:#2E4C9E;}
	.st76{filter:url(#Adobe_OpacityMaskFilter_29_);}
	.st77{mask:url(#mastersceneworking-from-home-mask-36_1_);fill-rule:evenodd;clip-rule:evenodd;fill:#ED7AD8;}
	.st78{filter:url(#Adobe_OpacityMaskFilter_30_);}
	.st79{mask:url(#mastersceneworking-from-home-mask-36_2_);fill-rule:evenodd;clip-rule:evenodd;fill:#FFFFFF;}
</style>
<g>
	
		<g id="Window_1_" transform="translate(505.000000, 226.000000) scale(1 1)" blush:component="Window" blush:height="475" blush:i="0.0" blush:value="Small" blush:viewBox="100.63999999999999 16.879675810473827 384.8 441.24064837905246" blush:width="592">
		<g id="Window_x2F_Small" blush:i="0.0.0" blush:viewBox="100.63999999999999 16.879675810473827 384.8 441.24064837905246">
			<g id="Window" transform="translate(102.000000, 17.000000)" blush:i="0.0.0.0">
				<g id="Group-10" transform="translate(0.000000, 0.787000)" blush:i="0.0.0.0.0">
					<path id="Fill-1" blush:i="0.0.0.0.0.0" class="st0" d="M-381.3,16.5L-381.3,16.5c-83.5,0-151.1,67.7-151.1,151.1V433h302.3
						V167.7C-230.2,84.2-297.8,16.5-381.3,16.5"/>
					<path id="Fill-3" blush:i="0.0.0.0.0.1" class="st1" d="M-255.8,168v276h-251V168c0-69.3,56.2-125.5,125.5-125.5
						c31.8,0,60.8,11.8,82.9,31.3c17.3,15.2,30.4,35.2,37.2,57.8C-257.7,143.3-255.8,155.4-255.8,168"/>
					<polygon id="Fill-5" blush:i="0.0.0.0.0.2" class="st0" points="-570.1,456.3 -192.5,456.3 -192.5,427.8 -570.1,427.8 					">
					</polygon>
					<path id="Fill-9" blush:i="0.0.0.0.0.3" class="st2" d="M-192.5,429.4h-377.5c-0.9,0-1.6-0.7-1.6-1.6c0-0.9,0.7-1.6,1.6-1.6
						h377.5c0.9,0,1.6,0.7,1.6,1.6C-190.9,428.7-191.7,429.4-192.5,429.4"/>
				</g>
				<g id="Group-17" transform="translate(65.000000, 58.787000)" blush:i="0.0.0.0.1">
					<g id="Group-13" transform="translate(0.000000, 61.000000)" blush:i="0.0.0.0.1.0">
						<path id="Combined-Shape" blush:i="0.0.0.0.1.0.0" class="st3" d="M-320.8,49l0,52.2l-251,155.6v-82.5l246.9-157.2
							C-322.2,27.3-320.8,38-320.8,49z"/>
					</g>
					<g id="Group-16" blush:i="0.0.0.0.1.1">
						<path id="Combined-Shape_1_" blush:i="0.0.0.0.1.1.0" class="st3" d="M-338.7,45.4l-233.1,141.8v-40.7l209.7-129.5
							C-353,25.3-345.1,34.9-338.7,45.4z"/>
					</g>
				</g>
				<path id="Fill-7" blush:i="0.0.0.0.2" class="st2" d="M-381.3,430.2c-0.9,0-1.6-0.7-1.6-1.6V43.4c0-0.9,0.7-1.6,1.6-1.6
					s1.6,0.7,1.6,1.6v385.2C-379.7,429.4-380.4,430.2-381.3,430.2"/>
				<path id="Fill-8" blush:i="0.0.0.0.3" class="st2" d="M-255.8,251.2h-250.9c-0.9,0-1.6-0.7-1.6-1.6c0-0.9,0.7-1.6,1.6-1.6h250.9
					c0.9,0,1.6,0.7,1.6,1.6C-254.2,250.5-254.9,251.2-255.8,251.2"/>
			</g>
		</g>
	</g>
	
		<g id="Wall_Objects" transform="translate(1861.000000, 118.000000) scale(1 1)" blush:component="Wall Objects" blush:height="727" blush:i="0.1" blush:value="Book Shelf" blush:viewBox="154.35000000000002 107.63834951456317 568.89 361.7354368932037" blush:width="882">
		
			<g id="Wall_Objects_x2F_Book_Shelf" blush:i="0.1.1" blush:viewBox="154.35000000000002 107.63834951456317 568.89 361.7354368932037">
			<g id="Group-36" transform="translate(158.000000, 109.000000)" blush:i="0.1.1.0">
				<polygon id="Fill-1_1_" blush:i="0.1.1.0.0" class="st4" points="-507.9,273.9 -497.7,373.8 -477.6,373.8 -467.4,273.9 				">
				</polygon>
				<polygon id="Fill-2" blush:i="0.1.1.0.1" class="st4" points="-112.3,273.9 -102.1,373.8 -82,373.8 -71.8,273.9 				">
				</polygon>
				<polygon id="Fill-3_1_" blush:i="0.1.1.0.2" class="st5" points="-497.8,262.5 -479.8,262.5 -479.8,194 -497.8,194 				">
				</polygon>
				<polygon id="Fill-4" blush:i="0.1.1.0.3" class="st5" points="-515.8,262.5 -497.8,262.5 -497.8,194 				">
				</polygon>
				<polygon id="Fill-5_1_" blush:i="0.1.1.0.4" class="st5" points="-278.7,262.5 -260.7,262.5 -260.7,194 -278.7,194 				">
				</polygon>
				<polygon id="Fill-6" blush:i="0.1.1.0.5" class="st5" points="-242.7,262.5 -260.7,262.5 -260.7,194 				">
				</polygon>
				<polygon id="Fill-7_1_" blush:i="0.1.1.0.6" class="st1" points="-421.8,255.8 -362.8,255.8 -362.8,17.3 -421.8,17.3 				">
				</polygon>
				<g id="Group-28" transform="translate(0.000000, 0.512000)" blush:i="0.1.1.0.7">
					<path id="Fill-8_1_" blush:i="0.1.1.0.7.0" class="st2" d="M-392.3,212.1c-0.8,0-1.4-0.6-1.4-1.4V74c0-0.8,0.6-1.4,1.4-1.4
						s1.4,0.6,1.4,1.4v136.6C-390.9,211.4-391.5,212.1-392.3,212.1"/>
					<g id="Clip-11" blush:i="0.1.1.0.7.2">
					</g>
					<defs>
						<filter id="Adobe_OpacityMaskFilter" filterUnits="userSpaceOnUse" x="-362.7" y="61.9" width="43.2" height="193.4">
							<feColorMatrix  type="matrix" values="1 0 0 0 0  0 1 0 0 0  0 0 1 0 0  0 0 0 1 0"/>
						</filter>
					</defs>
					<mask maskUnits="userSpaceOnUse" x="-362.7" y="61.9" width="43.2" height="193.4" id="wall-objectsbook-shelf-mask-2_1_">
						<g blush:i="0.1.1.0.7.1.0" class="st6">
							<polygon id="wall-objectsbook-shelf-path-1_1_" blush:i="0.1.0.0" class="st7" points="-572.6,373.3 -7,373.3 -7,16.8 
								-572.6,16.8 							">
							</polygon>
						</g>
					</mask>
					<polygon id="Fill-10" blush:i="0.1.1.0.7.3" class="st8" points="-362.7,255.3 -319.5,255.3 -319.5,61.9 -362.7,61.9 					">
					</polygon>
					<defs>
						<filter id="Adobe_OpacityMaskFilter_1_" filterUnits="userSpaceOnUse" x="-342.5" y="107.2" width="2.9" height="112.7">
							<feColorMatrix  type="matrix" values="1 0 0 0 0  0 1 0 0 0  0 0 1 0 0  0 0 0 1 0"/>
						</filter>
					</defs>
					<mask maskUnits="userSpaceOnUse" x="-342.5" y="107.2" width="2.9" height="112.7" id="wall-objectsbook-shelf-mask-2_2_">
						<g blush:i="0.1.1.0.7.1.0" class="st9">
							<polygon id="wall-objectsbook-shelf-path-1_2_" blush:i="0.1.0.0" class="st7" points="-572.6,373.3 -7,373.3 -7,16.8 
								-572.6,16.8 							">
							</polygon>
						</g>
					</mask>
					<path id="Fill-12" blush:i="0.1.1.0.7.4" class="st10" d="M-341.1,219.9c-0.8,0-1.4-0.6-1.4-1.4V108.7c0-0.8,0.6-1.4,1.4-1.4
						c0.8,0,1.4,0.6,1.4,1.4v109.8C-339.7,219.2-340.3,219.9-341.1,219.9"/>
					<defs>
						<filter id="Adobe_OpacityMaskFilter_2_" filterUnits="userSpaceOnUse" x="-352" y="75.8" width="21.8" height="21.8">
							<feColorMatrix  type="matrix" values="1 0 0 0 0  0 1 0 0 0  0 0 1 0 0  0 0 0 1 0"/>
						</filter>
					</defs>
					<mask maskUnits="userSpaceOnUse" x="-352" y="75.8" width="21.8" height="21.8" id="wall-objectsbook-shelf-mask-2_3_">
						<g blush:i="0.1.1.0.7.1.0" class="st11">
							<polygon id="wall-objectsbook-shelf-path-1_3_" blush:i="0.1.0.0" class="st7" points="-572.6,373.3 -7,373.3 -7,16.8 
								-572.6,16.8 							">
							</polygon>
						</g>
					</mask>
					<path id="Fill-13" blush:i="0.1.1.0.7.5" class="st12" d="M-330.2,86.8c0,6-4.9,10.9-10.9,10.9c-6,0-10.9-4.9-10.9-10.9
						s4.9-10.9,10.9-10.9C-335.1,75.8-330.2,80.7-330.2,86.8"/>
					<defs>
						<filter id="Adobe_OpacityMaskFilter_3_" filterUnits="userSpaceOnUse" x="-346.5" y="229.7" width="10.9" height="10.9">
							<feColorMatrix  type="matrix" values="1 0 0 0 0  0 1 0 0 0  0 0 1 0 0  0 0 0 1 0"/>
						</filter>
					</defs>
					<mask maskUnits="userSpaceOnUse" x="-346.5" y="229.7" width="10.9" height="10.9" id="wall-objectsbook-shelf-mask-2_4_">
						<g blush:i="0.1.1.0.7.1.0" class="st13">
							<polygon id="wall-objectsbook-shelf-path-1_4_" blush:i="0.1.0.0" class="st7" points="-572.6,373.3 -7,373.3 -7,16.8 
								-572.6,16.8 							">
							</polygon>
						</g>
					</mask>
					<path id="Fill-14" blush:i="0.1.1.0.7.6" class="st14" d="M-335.6,235.2c0,3-2.4,5.5-5.5,5.5c-3,0-5.5-2.4-5.5-5.5
						c0-3,2.4-5.5,5.5-5.5C-338.1,229.7-335.6,232.2-335.6,235.2"/>
					<defs>
						<filter id="Adobe_OpacityMaskFilter_4_" filterUnits="userSpaceOnUse" x="-480.5" y="61.9" width="59" height="193.4">
							<feColorMatrix  type="matrix" values="1 0 0 0 0  0 1 0 0 0  0 0 1 0 0  0 0 0 1 0"/>
						</filter>
					</defs>
					<mask maskUnits="userSpaceOnUse" x="-480.5" y="61.9" width="59" height="193.4" id="wall-objectsbook-shelf-mask-2_5_">
						<g blush:i="0.1.1.0.7.1.0" class="st15">
							<polygon id="wall-objectsbook-shelf-path-1_5_" blush:i="0.1.0.0" class="st7" points="-572.6,373.3 -7,373.3 -7,16.8 
								-572.6,16.8 							">
							</polygon>
						</g>
					</mask>
					<polygon id="Fill-15" blush:i="0.1.1.0.7.7" class="st16" points="-480.5,255.3 -421.5,255.3 -421.5,61.9 -480.5,61.9 					">
					</polygon>
					<defs>
						<filter id="Adobe_OpacityMaskFilter_5_" filterUnits="userSpaceOnUse" x="-452.4" y="110.4" width="2.9" height="108.7">
							<feColorMatrix  type="matrix" values="1 0 0 0 0  0 1 0 0 0  0 0 1 0 0  0 0 0 1 0"/>
						</filter>
					</defs>
					<mask maskUnits="userSpaceOnUse" x="-452.4" y="110.4" width="2.9" height="108.7" id="wall-objectsbook-shelf-mask-2_6_">
						<g blush:i="0.1.1.0.7.1.0" class="st17">
							<polygon id="wall-objectsbook-shelf-path-1_6_" blush:i="0.1.0.0" class="st7" points="-572.6,373.3 -7,373.3 -7,16.8 
								-572.6,16.8 							">
							</polygon>
						</g>
					</mask>
					<path id="Fill-16" blush:i="0.1.1.0.7.8" class="st18" d="M-451,219.1c-0.8,0-1.4-0.6-1.4-1.4V111.8c0-0.8,0.6-1.4,1.4-1.4
						s1.4,0.6,1.4,1.4v105.9C-449.6,218.5-450.2,219.1-451,219.1"/>
					<defs>
						<filter id="Adobe_OpacityMaskFilter_6_" filterUnits="userSpaceOnUse" x="-461.9" y="75.8" width="21.8" height="21.8">
							<feColorMatrix  type="matrix" values="1 0 0 0 0  0 1 0 0 0  0 0 1 0 0  0 0 0 1 0"/>
						</filter>
					</defs>
					<mask maskUnits="userSpaceOnUse" x="-461.9" y="75.8" width="21.8" height="21.8" id="wall-objectsbook-shelf-mask-2_7_">
						<g blush:i="0.1.1.0.7.1.0" class="st19">
							<polygon id="wall-objectsbook-shelf-path-1_7_" blush:i="0.1.0.0" class="st7" points="-572.6,373.3 -7,373.3 -7,16.8 
								-572.6,16.8 							">
							</polygon>
						</g>
					</mask>
					<path id="Fill-17" blush:i="0.1.1.0.7.9" class="st20" d="M-440.1,86.8c0,6-4.9,10.9-10.9,10.9c-6,0-10.9-4.9-10.9-10.9
						s4.9-10.9,10.9-10.9C-445,75.8-440.1,80.7-440.1,86.8"/>
					<defs>
						<filter id="Adobe_OpacityMaskFilter_7_" filterUnits="userSpaceOnUse" x="-468" y="233.9" width="34" height="9">
							<feColorMatrix  type="matrix" values="1 0 0 0 0  0 1 0 0 0  0 0 1 0 0  0 0 0 1 0"/>
						</filter>
					</defs>
					<mask maskUnits="userSpaceOnUse" x="-468" y="233.9" width="34" height="9" id="wall-objectsbook-shelf-mask-2_8_">
						<g blush:i="0.1.1.0.7.1.0" class="st21">
							<polygon id="wall-objectsbook-shelf-path-1_8_" blush:i="0.1.0.0" class="st7" points="-572.6,373.3 -7,373.3 -7,16.8 
								-572.6,16.8 							">
							</polygon>
						</g>
					</mask>
					<path id="Fill-18" blush:i="0.1.1.0.7.10" class="st22" d="M-438.5,242.9h-25c-2.5,0-4.5-2-4.5-4.5c0-2.5,2-4.5,4.5-4.5h25
						c2.5,0,4.5,2,4.5,4.5C-434,240.9-436,242.9-438.5,242.9"/>
					<defs>
						<filter id="Adobe_OpacityMaskFilter_8_" filterUnits="userSpaceOnUse" x="-319.6" y="108.1" width="40.9" height="147.2">
							<feColorMatrix  type="matrix" values="1 0 0 0 0  0 1 0 0 0  0 0 1 0 0  0 0 0 1 0"/>
						</filter>
					</defs>
					<mask maskUnits="userSpaceOnUse" x="-319.6" y="108.1" width="40.9" height="147.2" id="wall-objectsbook-shelf-mask-2_9_">
						<g blush:i="0.1.1.0.7.1.0" class="st23">
							<polygon id="wall-objectsbook-shelf-path-1_9_" blush:i="0.1.0.0" class="st7" points="-572.6,373.3 -7,373.3 -7,16.8 
								-572.6,16.8 							">
							</polygon>
						</g>
					</mask>
					<polygon id="Fill-19" blush:i="0.1.1.0.7.11" class="st24" points="-319.6,255.3 -278.7,255.3 -278.7,108.1 -319.6,108.1 					
						">
					</polygon>
					<defs>
						<filter id="Adobe_OpacityMaskFilter_9_" filterUnits="userSpaceOnUse" x="-300.6" y="139.2" width="2.9" height="74.4">
							<feColorMatrix  type="matrix" values="1 0 0 0 0  0 1 0 0 0  0 0 1 0 0  0 0 0 1 0"/>
						</filter>
					</defs>
					<mask maskUnits="userSpaceOnUse" x="-300.6" y="139.2" width="2.9" height="74.4" id="wall-objectsbook-shelf-mask-2_10_">
						<g blush:i="0.1.1.0.7.1.0" class="st25">
							<polygon id="wall-objectsbook-shelf-path-1_10_" blush:i="0.1.0.0" class="st7" points="-572.6,373.3 -7,373.3 -7,16.8 
								-572.6,16.8 							">
							</polygon>
						</g>
					</mask>
					<path id="Fill-20" blush:i="0.1.1.0.7.12" class="st26" d="M-299.2,213.6c-0.8,0-1.4-0.6-1.4-1.4v-71.6c0-0.8,0.6-1.4,1.4-1.4
						s1.4,0.6,1.4,1.4v71.6C-297.7,212.9-298.4,213.6-299.2,213.6"/>
					<defs>
						<filter id="Adobe_OpacityMaskFilter_10_" filterUnits="userSpaceOnUse" x="-306.5" y="226" width="14.7" height="14.7">
							<feColorMatrix  type="matrix" values="1 0 0 0 0  0 1 0 0 0  0 0 1 0 0  0 0 0 1 0"/>
						</filter>
					</defs>
					<mask maskUnits="userSpaceOnUse" x="-306.5" y="226" width="14.7" height="14.7" id="wall-objectsbook-shelf-mask-2_11_">
						<g blush:i="0.1.1.0.7.1.0" class="st27">
							<polygon id="wall-objectsbook-shelf-path-1_11_" blush:i="0.1.0.0" class="st7" points="-572.6,373.3 -7,373.3 -7,16.8 
								-572.6,16.8 							">
							</polygon>
						</g>
					</mask>
					<path id="Fill-21" blush:i="0.1.1.0.7.13" class="st28" d="M-291.8,233.3c0,4.1-3.3,7.3-7.3,7.3c-4.1,0-7.3-3.3-7.3-7.3
						s3.3-7.3,7.3-7.3C-295.1,226-291.8,229.3-291.8,233.3"/>
					<defs>
						<filter id="Adobe_OpacityMaskFilter_11_" filterUnits="userSpaceOnUse" x="-312.1" y="118.2" width="25.9" height="9">
							<feColorMatrix  type="matrix" values="1 0 0 0 0  0 1 0 0 0  0 0 1 0 0  0 0 0 1 0"/>
						</filter>
					</defs>
					<mask maskUnits="userSpaceOnUse" x="-312.1" y="118.2" width="25.9" height="9" id="wall-objectsbook-shelf-mask-2_12_">
						<g blush:i="0.1.1.0.7.1.0" class="st29">
							<polygon id="wall-objectsbook-shelf-path-1_12_" blush:i="0.1.0.0" class="st7" points="-572.6,373.3 -7,373.3 -7,16.8 
								-572.6,16.8 							">
							</polygon>
						</g>
					</mask>
					<path id="Fill-22" blush:i="0.1.1.0.7.14" class="st30" d="M-290.7,127.2h-16.9c-2.5,0-4.5-2-4.5-4.5s2-4.5,4.5-4.5h16.9
						c2.5,0,4.5,2,4.5,4.5S-288.2,127.2-290.7,127.2"/>
					<defs>
						<filter id="Adobe_OpacityMaskFilter_12_" filterUnits="userSpaceOnUse" x="-405.1" y="31.8" width="25.5" height="25.5">
							<feColorMatrix  type="matrix" values="1 0 0 0 0  0 1 0 0 0  0 0 1 0 0  0 0 0 1 0"/>
						</filter>
					</defs>
					<mask maskUnits="userSpaceOnUse" x="-405.1" y="31.8" width="25.5" height="25.5" id="wall-objectsbook-shelf-mask-2_13_">
						<g blush:i="0.1.1.0.7.1.0" class="st31">
							<polygon id="wall-objectsbook-shelf-path-1_13_" blush:i="0.1.0.0" class="st7" points="-572.6,373.3 -7,373.3 -7,16.8 
								-572.6,16.8 							">
							</polygon>
						</g>
					</mask>
					<polygon id="Fill-23" blush:i="0.1.1.0.7.15" class="st32" points="-405.1,57.3 -379.6,57.3 -379.6,31.8 -405.1,31.8 					">
					</polygon>
					<defs>
						<filter id="Adobe_OpacityMaskFilter_13_" filterUnits="userSpaceOnUse" x="-405.1" y="226" width="25.5" height="12.8">
							<feColorMatrix  type="matrix" values="1 0 0 0 0  0 1 0 0 0  0 0 1 0 0  0 0 0 1 0"/>
						</filter>
					</defs>
					<mask maskUnits="userSpaceOnUse" x="-405.1" y="226" width="25.5" height="12.8" id="wall-objectsbook-shelf-mask-2_14_">
						<g blush:i="0.1.1.0.7.1.0" class="st33">
							<polygon id="wall-objectsbook-shelf-path-1_14_" blush:i="0.1.0.0" class="st7" points="-572.6,373.3 -7,373.3 -7,16.8 
								-572.6,16.8 							">
							</polygon>
						</g>
					</mask>
					<polygon id="Fill-24" blush:i="0.1.1.0.7.16" class="st34" points="-405.1,238.8 -379.6,238.8 -379.6,226 -405.1,226 					">
					</polygon>
					<defs>
						<filter id="Adobe_OpacityMaskFilter_14_" filterUnits="userSpaceOnUse" x="-194.5" y="129.6" width="127.7" height="127.7">
							<feColorMatrix  type="matrix" values="1 0 0 0 0  0 1 0 0 0  0 0 1 0 0  0 0 0 1 0"/>
						</filter>
					</defs>
					<mask maskUnits="userSpaceOnUse" x="-194.5" y="129.6" width="127.7" height="127.7" id="wall-objectsbook-shelf-mask-2_15_">
						<g blush:i="0.1.1.0.7.1.0" class="st35">
							<polygon id="wall-objectsbook-shelf-path-1_15_" blush:i="0.1.0.0" class="st7" points="-572.6,373.3 -7,373.3 -7,16.8 
								-572.6,16.8 							">
							</polygon>
						</g>
					</mask>
					<path id="Fill-25" blush:i="0.1.1.0.7.17" class="st36" d="M-66.8,193.5c0,35.3-28.6,63.8-63.8,63.8
						c-35.3,0-63.8-28.6-63.8-63.8s28.6-63.8,63.8-63.8C-95.4,129.6-66.8,158.2-66.8,193.5"/>
					<defs>
						<filter id="Adobe_OpacityMaskFilter_15_" filterUnits="userSpaceOnUse" x="-162.5" y="74.3" width="63.7" height="67.1">
							<feColorMatrix  type="matrix" values="1 0 0 0 0  0 1 0 0 0  0 0 1 0 0  0 0 0 1 0"/>
						</filter>
					</defs>
					<mask maskUnits="userSpaceOnUse" x="-162.5" y="74.3" width="63.7" height="67.1" id="wall-objectsbook-shelf-mask-2_16_">
						<g blush:i="0.1.1.0.7.1.0" class="st37">
							<polygon id="wall-objectsbook-shelf-path-1_16_" blush:i="0.1.0.0" class="st7" points="-572.6,373.3 -7,373.3 -7,16.8 
								-572.6,16.8 							">
							</polygon>
						</g>
					</mask>
					<path id="Fill-26" blush:i="0.1.1.0.7.18" class="st38" d="M-117.4,141.4h-26.3l-18.5-62.1c-0.7-2.5,1.1-4.9,3.7-4.9h56
						c2.6,0,4.4,2.5,3.7,4.9L-117.4,141.4z"/>
					<defs>
						<filter id="Adobe_OpacityMaskFilter_16_" filterUnits="userSpaceOnUse" x="-159.8" y="91" width="58.4" height="2.9">
							<feColorMatrix  type="matrix" values="1 0 0 0 0  0 1 0 0 0  0 0 1 0 0  0 0 0 1 0"/>
						</filter>
					</defs>
					<mask maskUnits="userSpaceOnUse" x="-159.8" y="91" width="58.4" height="2.9" id="wall-objectsbook-shelf-mask-2_17_">
						<g blush:i="0.1.1.0.7.1.0" class="st39">
							<polygon id="wall-objectsbook-shelf-path-1_17_" blush:i="0.1.0.0" class="st7" points="-572.6,373.3 -7,373.3 -7,16.8 
								-572.6,16.8 							">
							</polygon>
						</g>
					</mask>
					<path id="Fill-27" blush:i="0.1.1.0.7.19" class="st40" d="M-102.9,93.9h-55.5c-0.8,0-1.4-0.6-1.4-1.4c0-0.8,0.6-1.4,1.4-1.4
						h55.5c0.8,0,1.4,0.6,1.4,1.4C-101.4,93.3-102.1,93.9-102.9,93.9"/>
				</g>
				<g id="Group-31" transform="translate(378.000000, 58.512000)" blush:i="0.1.1.0.8">
					<g id="Clip-30" blush:i="0.1.1.0.8.1">
					</g>
					<defs>
						<filter id="Adobe_OpacityMaskFilter_17_" filterUnits="userSpaceOnUse" x="-536.4" y="77.1" width="119.3" height="125.2">
							<feColorMatrix  type="matrix" values="1 0 0 0 0  0 1 0 0 0  0 0 1 0 0  0 0 0 1 0"/>
						</filter>
					</defs>
					<mask maskUnits="userSpaceOnUse" x="-536.4" y="77.1" width="119.3" height="125.2" id="wall-objectsbook-shelf-mask-4_1_">
						<g blush:i="0.1.1.0.8.0.0" class="st41">
							<path id="wall-objectsbook-shelf-path-3_1_" blush:i="0.1.0.2" class="st7" d="M-536.6,16.3c-2.6,0-4.4,2.5-3.7,4.9l0,0
								l15.6,52.4c-27.5,7.1-47.8,32.1-47.8,61.8l0,0c0,35.3,28.6,63.8,63.8,63.8l0,0c35.3,0,63.8-28.6,63.8-63.8l0,0
								c0-29.7-20.3-54.7-47.8-61.8l0,0l15.6-52.4c0.7-2.5-1.1-4.9-3.7-4.9l0,0H-536.6z"/>
						</g>
					</mask>
					<polygon id="Fill-29" blush:i="0.1.1.0.8.2" class="st42" points="-470,77.1 -536.4,142.2 -520.7,141.9 -534.4,162.2 
						-517.8,160.7 -527.8,182.9 -489.7,162.7 -526.1,190.4 -486.4,176.4 -498.4,202.2 -417,152.2 					">
					</polygon>
				</g>
				<g id="Group-35" transform="translate(0.000000, 236.512000)" blush:i="0.1.1.0.9">
					<g id="Clip-33" blush:i="0.1.1.0.9.1">
					</g>
					<defs>
						<filter id="Adobe_OpacityMaskFilter_18_" filterUnits="userSpaceOnUse" x="-572.4" y="17.1" width="565.1" height="40.5">
							<feColorMatrix  type="matrix" values="1 0 0 0 0  0 1 0 0 0  0 0 1 0 0  0 0 0 1 0"/>
						</filter>
					</defs>
					<mask maskUnits="userSpaceOnUse" x="-572.4" y="17.1" width="565.1" height="40.5" id="wall-objectsbook-shelf-mask-6_1_">
						<g blush:i="0.1.1.0.9.0.0" class="st43">
							<polygon id="wall-objectsbook-shelf-path-5_1_" blush:i="0.1.0.1" class="st7" points="-572.6,17.1 -7,17.1 -7,57.6 
								-572.6,57.6 							">
							</polygon>
						</g>
					</mask>
					<polygon id="Fill-32" blush:i="0.1.1.0.9.2" class="st44" points="-572.4,57.6 -7.2,57.6 -7.2,17.1 -572.4,17.1 					">
					</polygon>
					<defs>
						<filter id="Adobe_OpacityMaskFilter_19_" filterUnits="userSpaceOnUse" x="-572.6" y="35.9" width="565.6" height="2.9">
							<feColorMatrix  type="matrix" values="1 0 0 0 0  0 1 0 0 0  0 0 1 0 0  0 0 0 1 0"/>
						</filter>
					</defs>
					<mask maskUnits="userSpaceOnUse" x="-572.6" y="35.9" width="565.6" height="2.9" id="wall-objectsbook-shelf-mask-6_2_">
						<g blush:i="0.1.1.0.9.0.0" class="st45">
							<polygon id="wall-objectsbook-shelf-path-5_2_" blush:i="0.1.0.1" class="st7" points="-572.6,17.1 -7,17.1 -7,57.6 
								-572.6,57.6 							">
							</polygon>
						</g>
					</mask>
					<path id="Fill-34" blush:i="0.1.1.0.9.3" class="st46" d="M-8.5,38.8h-562.7c-0.8,0-1.4-0.6-1.4-1.4c0-0.8,0.6-1.4,1.4-1.4
						H-8.5c0.8,0,1.4,0.6,1.4,1.4C-7,38.1-7.7,38.8-8.5,38.8"/>
				</g>
			</g>
		</g>
	</g>
	
		<g id="Chair" transform="translate(764.000000, 837.000000) scale(1 1)" blush:component="Chair" blush:height="755" blush:i="0.3" blush:value="Plastic Chair" blush:viewBox="181.29999999999995 17.159090909090878 617.4 740.2922077922078" blush:width="980">
		<g id="Chair_x2F_Plastic_Chair" blush:i="0.3.0" blush:viewBox="181.29999999999995 17.159090909090878 617.4 740.2922077922078">
			<g id="Group-63" transform="translate(181.000000, 17.000000)" blush:i="0.3.0.0">
				<g id="Group-58" blush:i="0.3.0.0.0">
					<path id="Fill-38" blush:i="0.3.0.0.0.0" class="st2" d="M-35.4,753.8c-0.6,0-1.2-0.4-1.4-1l-123.7-380.2
						c-0.2-0.8,0.2-1.6,0.9-1.8c0.8-0.2,1.6,0.2,1.8,0.9l123.7,380.2c0.2,0.8-0.2,1.6-0.9,1.8C-35.2,753.7-35.3,753.8-35.4,753.8"/>
					<path id="Fill-40_1_" blush:i="0.3.0.0.0.1" class="st2" d="M-503.9,753.8c-0.1,0-0.3,0-0.4-0.1c-0.8-0.2-1.2-1-0.9-1.8
						l116.7-380.2c0.2-0.8,1-1.2,1.8-0.9c0.8,0.2,1.2,1,0.9,1.8l-116.7,380.2C-502.7,753.4-503.3,753.8-503.9,753.8"/>
					<path id="Fill-42" blush:i="0.3.0.0.0.2" class="st47" d="M-164.4,365.6H-467L-570.6,48.2c-5-15.4,6.4-31.2,22.6-31.2h252.6
						c10.3,0,19.4,6.6,22.6,16.4L-164.4,365.6z"/>
					<path id="Fill-44" blush:i="0.3.0.0.0.3" class="st48" d="M-126.5,365.6h-302.6L-532.7,48.2c-5-15.4,6.4-31.2,22.6-31.2h252.6
						c10.3,0,19.4,6.6,22.6,16.4L-126.5,365.6z"/>
					<path id="Fill-46" blush:i="0.3.0.0.0.4" class="st47" d="M-443.6,387.8H18.1c14.1,0,25.5-11.4,25.5-25.5
						c0-14.1-11.4-25.5-25.5-25.5h-494.5l16.2,51H-443.6z"/>
					<path id="Fill-48" blush:i="0.3.0.0.0.5" class="st2" d="M-82,617.9h-380.2c-0.8,0-1.4-0.6-1.4-1.4c0-0.8,0.6-1.4,1.4-1.4H-82
						c0.8,0,1.4,0.6,1.4,1.4C-80.6,617.3-81.2,617.9-82,617.9"/>
					<path id="Fill-50" blush:i="0.3.0.0.0.6" class="st2" d="M43.6,363.7H-467c-0.8,0-1.4-0.6-1.4-1.4c0-0.8,0.6-1.4,1.4-1.4H43.6
						c0.8,0,1.4,0.6,1.4,1.4C45,363.1,44.4,363.7,43.6,363.7"/>
					<path id="Fill-52" blush:i="0.3.0.0.0.7" class="st7" d="M-397,263.9c-0.6,0-1.2-0.4-1.4-1L-456,80.4c-0.2-0.8,0.2-1.6,0.9-1.8
						c0.8-0.2,1.6,0.2,1.8,0.9l57.6,182.5c0.2,0.8-0.2,1.6-0.9,1.8C-396.7,263.9-396.9,263.9-397,263.9"/>
					<path id="Fill-54" blush:i="0.3.0.0.0.8" class="st7" d="M-309.8,263.9c-0.6,0-1.2-0.4-1.4-1l-57.6-182.5
						c-0.2-0.8,0.2-1.6,0.9-1.8c0.8-0.2,1.6,0.2,1.8,0.9l57.6,182.5c0.2,0.8-0.2,1.6-0.9,1.8C-309.5,263.9-309.7,263.9-309.8,263.9"
						/>
					<path id="Fill-56" blush:i="0.3.0.0.0.9" class="st7" d="M-222.6,263.9c-0.6,0-1.2-0.4-1.4-1l-57.6-182.5
						c-0.2-0.8,0.2-1.6,0.9-1.8c0.8-0.2,1.6,0.2,1.8,0.9l57.6,182.5c0.2,0.8-0.2,1.6-0.9,1.8C-222.3,263.9-222.4,263.9-222.6,263.9"
						/>
				</g>
			</g>
		</g>
	</g>
	
		<g id="Master_x2F_Character_x2F_Sitting_on_Chair_1_" transform="translate(743.000000, -7.000000) scale(1 1)" blush:component="Master/Character/Sitting on Chair" blush:has-customizable-colors="true" blush:height="1592" blush:i="0.4" blush:value="Sitting on Chair" blush:viewBox="326.3600000000001 485.55999999999995 1265.6399999999999 1106.44" blush:width="1592">
		
			<g id="Master_x2F_Character_x2F_Sitting_on_Chair" blush:has-customizable-colors="true" blush:i="0.4.1" blush:viewBox="326.3600000000001 485.55999999999995 1265.6399999999999 1106.44">
			
				<g id="Sitting_on_Chair" transform="translate(461.000000, 1003.000000) scale(1 1)" blush:component="Sitting on Chair" blush:height="589" blush:i="0.4.1.0" blush:value="Pants 4" blush:viewBox="0 -1.692528735632152 1129.9999999999998 592.3850574712644" blush:width="1130">
				
					<g id="Sitting_on_Chair_x2F_Pants_4" blush:i="0.4.1.0.1" blush:viewBox="0 -1.692528735632152 1129.9999999999998 592.3850574712644">
					<g id="Group-54" blush:i="0.4.1.0.1.0">
						<polygon id="Fill-1_2_" blush:i="0.4.1.0.1.0.0" class="st1" points="399.2,354.4 -40.7,50 -132.8,161.6 249.7,535.7 						">
						</polygon>
						<polygon id="Fill-1-Copy" blush:i="0.4.1.0.1.0.1" class="st49" points="399.2,354.4 -40.7,50 -132.8,161.6 249.7,535.7 
													">
						</polygon>
						<g id="Group-53" transform="translate(0.000000, 0.692000)" blush:i="0.4.1.0.1.0.2">
							<path id="Fill-2_1_" blush:i="0.4.1.0.1.0.2.0" class="st2" d="M248,533.5c8.5,7.1,28.4,2.5,51.1-11.5
								c18.9-11.7,39.6-29.8,57.2-53c11.1-14.7,20.9-29.4,28.8-43.1c19.5-33.9,27.4-62.1,15.9-70.8c-12.6-9.5-46.5,8.7-79.1,41.3
								c-9.3,9.3-18.5,19.8-27.1,31.1c-14.9,19.6-26.9,38.4-35.5,54.6C245.5,508.2,240.8,527.6,248,533.5"/>
							<g id="Group-6" transform="translate(831.000000, 380.000000)" blush:i="0.4.1.0.1.0.2.1">
								<g id="Clip-5" blush:i="0.4.1.0.1.0.2.1.1">
								</g>
								<defs>
									<filter id="Adobe_OpacityMaskFilter_20_" filterUnits="userSpaceOnUse" x="-571.8" y="16.5" width="297.6" height="207.8">
										<feColorMatrix  type="matrix" values="1 0 0 0 0  0 1 0 0 0  0 0 1 0 0  0 0 0 1 0"/>
									</filter>
								</defs>
								
									<mask maskUnits="userSpaceOnUse" x="-571.8" y="16.5" width="297.6" height="207.8" id="sitting-on-chairpants-4-mask-2_1_">
									<g blush:i="0.4.1.0.1.0.2.1.0.0" class="st50">
										<polygon id="sitting-on-chairpants-4-path-1_1_" blush:i="0.4.1.0.0.0" class="st7" points="-571.8,16.5 -274.2,16.5 
											-274.2,224.3 -571.8,224.3 										">
										</polygon>
									</g>
								</mask>
								<path id="Fill-4_1_" blush:i="0.4.1.0.1.0.2.1.2" class="st51" d="M-571.8,102.2l39.8,39.8l82.3,82.3l175.5-175.5
									c0,0-27.4-19.8-109.2-0.9c-20.3,4.7-40.5,3.3-59.4-1.2c-1-0.2-2-0.5-3-0.8c-20.4-5.6-46.5-19.7-63.3-29.5
									c-9.3,9.3-18.5,19.8-27.1,31.1C-551.2,67.2-563.2,86-571.8,102.2"/>
							</g>
							<path id="Fill-7_2_" blush:i="0.4.1.0.1.0.2.2" class="st2" d="M293,427.8c-0.3,0-0.7-0.1-0.9-0.3L36.5,212.8
								c-0.6-0.5-0.7-1.4-0.2-2c0.5-0.6,1.4-0.7,2-0.2l255.5,214.7c0.6,0.5,0.7,1.4,0.2,2C293.8,427.6,293.4,427.8,293,427.8"/>
							<path id="Fill-9_1_" blush:i="0.4.1.0.1.0.2.3" class="st2" d="M211.5,494.3c-0.1,0-0.2,0-0.3,0c-0.8-0.2-1.3-0.9-1.1-1.7
								c13.6-61.9,52.8-104.8,83.3-129.9c33.1-27.1,63.3-39.8,63.6-39.9c0.7-0.3,1.6,0,1.9,0.8c0.3,0.7,0,1.6-0.8,1.9
								c-0.3,0.1-30.3,12.7-63,39.5c-30.2,24.8-68.9,67.1-82.3,128.2C212.7,493.8,212.1,494.3,211.5,494.3"/>
							<path id="Fill-11" blush:i="0.4.1.0.1.0.2.4" class="st2" d="M369.3,593c-0.4,0-0.7-0.1-1-0.4c-0.6-0.6-0.6-1.5,0-2
								l165.4-168.9c0.6-0.6,1.5-0.6,2,0s0.6,1.5,0,2L370.4,592.5C370.1,592.8,369.7,593,369.3,593"/>
							<path id="Fill-13_1_" blush:i="0.4.1.0.1.0.2.5" class="st2" d="M342.3,566.5c-0.4,0-0.8-0.1-1-0.4c-0.5-0.6-0.5-1.5,0-2
								c0.3-0.3,32.7-30.6,59.3-4.5c0.6,0.6,0.6,1.5,0,2c-0.6,0.6-1.5,0.6-2,0c-10.3-10.1-22.7-12.4-36.8-7
								c-10.7,4.1-18.5,11.4-18.6,11.5C343,566.4,342.7,566.5,342.3,566.5"/>
							<path id="Fill-15_1_" blush:i="0.4.1.0.1.0.2.6" class="st7" d="M323.1,469c6.8,6.6,6.9,17.5,0.3,24.3
								c-6.6,6.8-17.5,6.9-24.3,0.3s-6.9-17.5-0.3-24.3C305.5,462.5,316.3,462.4,323.1,469"/>
							<path id="Fill-17_1_" blush:i="0.4.1.0.1.0.2.7" class="st2" d="M373.2,449.3c-0.2,0-0.4,0-0.6-0.1c-0.7-0.3-1-1.2-0.7-1.9
								l10.6-22.4c0.3-0.7,1.2-1,1.9-0.7c0.7,0.3,1,1.2,0.7,1.9l-10.6,22.4C374.3,449,373.8,449.3,373.2,449.3"/>
							<path id="Fill-19_1_" blush:i="0.4.1.0.1.0.2.8" class="st2" d="M391.1,456.3c-0.2,0-0.4,0-0.6-0.1c-0.7-0.3-1-1.2-0.7-1.9
								l11.1-24.5c0.3-0.7,1.2-1,1.9-0.7c0.7,0.3,1,1.2,0.7,1.9l-11.1,24.5C392.2,455.9,391.6,456.3,391.1,456.3"/>
							<path id="Fill-21_2_" blush:i="0.4.1.0.1.0.2.9" class="st2" d="M413.5,457.3c-0.2,0-0.4,0-0.5-0.1c-0.7-0.3-1.1-1.1-0.8-1.9
								l10.4-25c0.3-0.7,1.1-1.1,1.9-0.8c0.7,0.3,1.1,1.1,0.8,1.9l-10.4,25C414.5,457,414,457.3,413.5,457.3"/>
							<path id="Fill-23_1_" blush:i="0.4.1.0.1.0.2.10" class="st2" d="M429.5,328.3c-1,0-2.1,0.2-3.2,0.7
								c-8.8,3.6-18.7,21.3-28.7,51.2c-5.4,16.3-9.5,32.1-11.4,40c5.3-5.7,15.6-17,25.7-29.9c18.8-24,28.1-42.2,26.9-52.6
								c-0.4-3.5-1.9-6-4.6-7.8C432.6,328.8,431,328.3,429.5,328.3 M383.5,426.4c-0.2,0-0.5-0.1-0.7-0.2c-0.6-0.3-0.9-0.9-0.7-1.6
								c0-0.2,5-22.4,12.7-45.4c10.4-31.2,20.6-49,30.4-53c3.6-1.5,7.1-1.1,10.5,1.1c3.4,2.2,5.4,5.6,5.9,9.9
								c3,26.9-54.6,86.1-57,88.7C384.3,426.2,383.9,426.4,383.5,426.4"/>
							<path id="Fill-25_1_" blush:i="0.4.1.0.1.0.2.11" class="st2" d="M449.9,370.9c-8.9,0-22.7,9.1-40.1,26.5
								c-9.7,9.6-18,19.5-22.2,24.5c14.9-4,64.4-18.7,71.7-36.3c1.4-3.3,1.1-6.5-0.8-9.7c-1.9-3.1-4.5-4.8-7.8-5
								C450.4,370.9,450.2,370.9,449.9,370.9 M383.8,425.8c-0.5,0-0.9-0.2-1.2-0.7c-0.3-0.5-0.3-1.2,0.1-1.7
								c1.8-2.3,45.1-56.8,68.2-55.4c4.3,0.3,7.7,2.4,10.1,6.3c2.4,4,2.8,8.1,1,12.3c-9.1,22-75,38.4-77.8,39.1
								C384.1,425.8,383.9,425.8,383.8,425.8"/>
							<path id="Fill-27_1_" blush:i="0.4.1.0.1.0.2.12" class="st1" d="M-572.6,86.9c0,60.7,49.7,109.7,110.3,108.8
								c34.8-0.6,69.6-0.7,104.5-0.7c64.8,0.1,129.6,1.1,194.4,2.7c4.5,0.1,4.5,0.1-0.1,0c6,28,9.7,45.3,11.1,52
								c3.6,17.6,3,18,6.5,35.6c7,35.2,13.8,70.4,20,105.8l4.6,26.5l4.4,26.6c2.9,17.7,5.6,35.5,8.1,53.4L118.7,438
								c-6.6-16.8-12.9-33.6-19.1-50.5l-9.2-25.4l-9-25.4c-11.8-33.9-19-50.8-30-84.9c-5.6-17-11-34.1-16.4-51.2
								c-5.3-17.1-10.7-34.2-15.9-51.3l-3.9-12.9l-2-6.4l-1-3.4l-1.3-4c-0.9-2.7-1.8-5.3-2.8-8c-1.1-2.6-2.2-5.2-3.3-7.8
								c-1.1-2.6-2.5-5.1-3.8-7.6c-2.5-5.1-5.5-9.8-8.6-14.6c-6.3-9.3-13.5-18.1-21.7-25.7c-16.2-15.6-35.9-27.2-57-34.4
								c-2.7-0.9-5.3-1.6-8-2.4l-4-1.1c-1.4-0.3-2.7-0.6-4.1-0.9c-2.7-0.6-5.5-1.1-8.2-1.6c-2.8-0.4-5.5-0.8-8.3-1.1
								c-5.5-0.7-11.1-0.8-16.6-0.9l-1,0l-0.4,0l-0.8,0l-1.7,0l-3.4,0.1c-71.6,2-143.2,2.1-214.8,2.3c-67.7-1-140.3,0-214.8,0V86.9z
								"/>
							<path id="Fill-29_1_" blush:i="0.4.1.0.1.0.2.13" class="st2" d="M-108.7,497.5c2.9,11.4,23.2,16.4,51.8,15.4
								c20.7-0.7,45.8-4.5,71.9-11.2c21.5-5.5,41.1-12.5,57.3-20c30.8-14.3,49.6-30.8,46.3-43.7c-3.5-13.8-31.5-19.8-69.2-16.6
								c-16.1,1.3-34.1,4.3-52.7,9.1c-19.7,5-38,11.6-53.6,18.9C-90.6,465.1-112.1,484.1-108.7,497.5"/>
							<path id="Fill-31_1_" blush:i="0.4.1.0.1.0.2.14" class="st52" d="M-56.8,449.4v154.9h248.2c0,0-5.4-33.3-76.6-77.9
								c-17.6-11-31-26.3-41.2-42.9c-0.4-0.6-0.7-1.2-1.1-1.9c-11.2-19-18.4-42.3-22.9-60.3c-16.1,1.3-34.1,4.3-52.7,9.1
								C-22.9,435.6-41.2,442.1-56.8,449.4"/>
							<path id="Fill-33" blush:i="0.4.1.0.1.0.2.15" class="st2" d="M-3.2,431.1c-0.6,0-1.2-0.4-1.4-1l-83.3-265.7
								c-10.7-34.6-42.2-57.8-78.4-57.8h-277.1c-24.2,0-44-19.7-44-44v-41c0-0.8,0.6-1.4,1.4-1.4c0.8,0,1.4,0.6,1.4,1.4v41
								c0,22.7,18.4,41.1,41.1,41.1h277.1c37.5,0,70.1,24,81.2,59.8l83.3,265.7c0.2,0.8-0.2,1.6-0.9,1.8
								C-2.9,431.1-3.1,431.1-3.2,431.1"/>
							<path id="Fill-35" blush:i="0.4.1.0.1.0.2.16" class="st2" d="M-117.9,439.7c-0.4,0-0.8-0.2-1.1-0.5c-0.5-0.6-0.4-1.5,0.2-2
								c46.5-37.8,103.1-49.4,142.5-52.4c42.6-3.3,74.6,2.4,74.9,2.5c0.8,0.1,1.3,0.9,1.1,1.7c-0.1,0.8-0.9,1.3-1.7,1.1
								c-0.3-0.1-32.1-5.7-74.3-2.5c-38.9,3-94.9,14.4-140.8,51.8C-117.2,439.5-117.6,439.7-117.9,439.7"/>
							<path id="Fill-37_1_" blush:i="0.4.1.0.1.0.2.17" class="st2" d="M183.6,590.1H-56.1c-0.8,0-1.4-0.6-1.4-1.4s0.6-1.4,1.4-1.4
								h239.6c0.8,0,1.4,0.6,1.4,1.4S184.3,590.1,183.6,590.1"/>
							<path id="Fill-39" blush:i="0.4.1.0.1.0.2.18" class="st2" d="M-12.7,590.1c-0.8,0-1.4-0.6-1.4-1.4c0-14.4-7-24.9-20.8-31.2
								c-10.5-4.8-21.1-5.2-21.2-5.2c-0.8,0-1.4-0.7-1.4-1.5c0-0.8,0.7-1.4,1.5-1.4c0.4,0,44.7,2,44.7,39.3
								C-11.3,589.5-11.9,590.1-12.7,590.1"/>
							<path id="Fill-41" blush:i="0.4.1.0.1.0.2.19" class="st7" d="M-0.9,469.9c0,9.5-7.7,17.2-17.2,17.2
								c-9.5,0-17.2-7.7-17.2-17.2c0-9.5,7.7-17.2,17.2-17.2C-8.6,452.8-0.9,460.5-0.9,469.9"/>
							<path id="Fill-43_1_" blush:i="0.4.1.0.1.0.2.20" class="st2" d="M48.6,492.4c-0.6,0-1.1-0.4-1.3-1c-0.3-0.7,0.1-1.6,0.9-1.8
								l23.5-8.1c0.7-0.3,1.6,0.1,1.8,0.9c0.3,0.7-0.1,1.6-0.9,1.8l-23.5,8.1C49,492.4,48.8,492.4,48.6,492.4"/>
							<path id="Fill-45" blush:i="0.4.1.0.1.0.2.21" class="st2" d="M56.8,510c-0.6,0-1.1-0.4-1.3-0.9c-0.3-0.7,0.1-1.6,0.9-1.8
								l26.5-9.7c0.7-0.3,1.6,0.1,1.8,0.9c0.3,0.7-0.1,1.6-0.9,1.8l-26.5,9.7C57.1,510,57,510,56.8,510"/>
							<path id="Fill-47" blush:i="0.4.1.0.1.0.2.22" class="st2" d="M71.7,526.7c-0.6,0-1.1-0.3-1.3-0.9c-0.3-0.7,0.1-1.6,0.8-1.9
								l26.4-10.5c0.7-0.3,1.6,0.1,1.9,0.8c0.3,0.7-0.1,1.6-0.8,1.9l-26.4,10.5C72,526.7,71.9,526.7,71.7,526.7"/>
							<path id="Fill-49" blush:i="0.4.1.0.1.0.2.23" class="st2" d="M164.4,444.5c-10.4,0-27.4,5.6-49.8,16.5
								c-15.4,7.5-29.6,15.7-36.5,19.8c7.8-0.2,23.1-0.7,39.3-2.6c30.3-3.4,49.8-9.5,56.4-17.6c2.2-2.7,3-5.6,2.3-8.8
								c-0.6-3-2.2-5-4.9-6.2C169.5,444.9,167.2,444.5,164.4,444.5L164.4,444.5z M72.8,483.7c-0.6,0-1.2-0.4-1.4-1
								c-0.2-0.6,0.1-1.3,0.6-1.6c0.2-0.1,19.5-12.1,41.3-22.7c29.6-14.4,49.4-19.6,59.1-15.4c3.6,1.5,5.8,4.3,6.6,8.3
								c0.8,4-0.2,7.8-2.9,11.1C159,483.4,76.4,483.7,72.8,483.7L72.8,483.7z"/>
							<path id="Fill-51" blush:i="0.4.1.0.1.0.2.24" class="st2" d="M154,508.9c3.3-1.3,5.4-3.8,6.3-7.4c0.9-3.5,0.3-6.5-1.9-9.1
								c-5.8-6.7-22.2-10.4-47.5-10.6c-13.7-0.2-26.5,0.7-33,1.3C91.2,490.9,136.3,516,154,508.9z M72.7,483.3
								c-0.5-0.3-0.8-0.9-0.6-1.5c0.1-0.6,0.6-1,1.2-1.1c2.9-0.3,72.1-7.6,87.3,9.9c2.8,3.3,3.7,7.2,2.5,11.6
								c-1.2,4.5-3.9,7.6-8,9.3c-2.4,1-5.3,1.4-8.5,1.4C120.9,513,74.9,484.6,72.7,483.3z"/>
						</g>
					</g>
				</g>
			</g>
			
				<g id="Standing_Upper" transform="translate(0.000000, 314.000000) scale(1 1)" blush:component="Standing Upper" blush:height="1265" blush:i="0.4.1.1" blush:value="Using Laptop 2" blush:viewBox="329.97 377.04243353783227 808.75 342.76584867075655" blush:width="1294">
				
					<g id="Standing_Upper_x2F_Using_Laptop_2" blush:i="0.4.1.1.1" blush:viewBox="329.97 377.04243353783227 808.75 342.76584867075655">
					<g id="Group-58_1_" transform="translate(331.000000, 383.000000)" blush:i="0.4.1.1.1.0">
						<path id="Fill-1_3_" blush:color="Skin-500" blush:i="0.4.1.1.1.0.0" class="st53" d="M-192.7,106l-0.2-0.6l-0.1-0.3l0.2,0.6
							l0.4,1.2l0.4,1.4C-192.2,107.5-192.5,106.8-192.7,106 M-75,336c7.8-0.9,13.9-6.6,19.1-11.9c0.4-0.4,0.8-0.8,1.2-1.3
							c10.8-11.8,15.6-28.6,11.7-45.2l0-0.2l-9.4-39.7l-14.9-70.1l-6.8-27.9v0l-2.8-11.7l-2.1-8.7l-5.6-22.5l-2.1-8.5l-2.5-9.9
							l-0.3-1.2l-0.1-0.6l-0.6-2.1c-0.5-1.6-0.9-3.1-1.5-4.8c-0.6-1.7-1.3-3.4-2.1-5.1c-0.8-1.9-1.8-3.7-2.8-5.5
							c-0.8-1.4-1.7-2.9-2.6-4.2c-2-3.1-4.2-6-6.6-8.6c-9.8-10.8-22.7-18.5-37-21.5c-7.1-1.5-14.5-1.9-21.7-1.2
							c-1.8,0.2-3.8,0.5-5.7,0.9c-0.9,0.2-1.9,0.4-2.8,0.6l-0.6,0.1l-2.5,0.6l-3.9,0.9l-0.1,0l-25.5,6l-0.7,0.2l-5,1.2l-3.9,0.9
							c-8.5,2-17,4.1-25.5,6.2c-0.1,0-0.3,0.1-0.4,0.1h0c-2.5,0.6-5,1.2-7.4,1.8c-5.2,1.3-10.3,2.6-15.5,3.9h0h0
							c-4.8,1.2-9.6,2.5-14.3,3.8c-5,1.3-9.9,2.7-14.8,4c-11,3.1-20.3,9.3-27.1,17.5c-2.9,3.5-5.4,7.3-7.4,11.4
							c-5.8,11.8-7.5,25.8-3.9,39.6c2.8,10.4,8.2,19.3,15.4,26.2c12.8,12.2,30.9,17.9,49,13.7l0.1,0c26-5.9,51.7-12.6,77.4-19.5
							l7.9-2.1l4.4,14.4l12.1,39.3l17.5,69.7C-138.7,308-154,344.8-75,336"/>
						<path id="Fill-3_2_" blush:color="Outfit-500" blush:i="0.4.1.1.1.0.1" class="st1" d="M-129.6,335.3h-348l39.8-88.7
							c0,0,5.7-18,5.7-18l0,0l2.5-7.8l0.9-2.8l27.9-88.4l0.7-2.1l5.5-17.3l1.1-3.5c2.3-19.1,10.6-34.9,22.8-46.5
							c10.6-10.1,24.2-17,39.4-20.1c0.4-0.1,0.9-0.2,1.3-0.3c0.7-0.1,1.3-0.2,2-0.4c2.4-0.4,4.9-0.7,7.5-0.9l10.6-3.2h0
							c23.1,5.2,46.1,6.8,69.9,5c2.8-0.2,6.4,0.2,9.1-0.1c3.3-0.4,7.2-4.4,10.5-5c6-1,11.9-2.2,17.9-3.6l0.4-0.1
							c7.2-1.6,17.4-3.4,24.6-5.1l0.1,0c4.9,8.4,6.5,19.6,8.2,33.8l6.6,45.8l0.8,5.7l0.3,1.9l23.2,160.5l1.2,8.5l1.3,9l0.2,1.3
							L-129.6,335.3z"/>
						<path id="Fill-5_2_" blush:color="Outfit-500" blush:i="0.4.1.1.1.0.2" class="st1" d="M-369.3,106.3l2.4-6.2
							C-367.4,102.2-368.3,104.3-369.3,106.3 M-230.6,76.8c-0.1-0.3-0.3-0.5-0.4-0.8c-2-4.3-4.6-8.4-7.7-12
							c-6.5-7.7-15.1-13.8-25.1-17h0h0c-0.9-0.3-1.8-0.6-2.7-0.8c-0.2-0.1-0.5-0.1-0.7-0.2c-9.9-2.5-19.7-4.5-29.5-6.8h0
							c0,0,0,0,0,0c-2.1-0.5-4.2-0.9-6.3-1.5l6.3,1.5l-12.6-1.9l-10.5-1.4c0,0-1-0.4-1.1-0.4l0,0l-6.4-3.9l-4.8-1.1l-3.6-0.8
							l-3.5-0.8l-36.1-8.1l-9-2l-2.3-0.5l-1.1-0.2l-2.2-0.5l-2.5-0.4c-6.6-1-13.5-1.2-20.2-0.2c-13.5,1.8-26.2,7.6-36.5,16.5
							c-5.1,4.4-9.6,9.6-13.4,15.4c-0.6,1-1.2,1.9-1.8,2.9c-1.4,2.4-2.7,5-3.8,7.5c-0.1,0.1-0.1,0.2-0.2,0.3
							c-0.5,1.1-0.9,2.2-1.3,3.3l-12.6,27.8l-9.7,21.5c-7.9,17.6-15.9,35.2-23.8,52.9l-23.6,53c-4.8,10.9-9.6,21.7-14.3,32.6v0
							c-3,6.9-6,13.7-9,20.6c-10.7,24.8,0.3,53.8,24.6,64.8c23.2,10.4,50.1,0.6,61.9-21.7c0.3-0.5,0.6-1.1,0.9-1.7
							c8.7-16.6,17.3-33.2,25.9-49.8l17.6-34.3l0,0l4.2-8.2l1.5-2.9v0l3.2-6.2c8.9-17.2,17.6-34.4,26.4-51.6l13.2-26l1.1,0.3
							l18.4,4.3l36.1,8.3c3.8,0.8,7.6,1.7,11.4,2.6c7.6,1.7,15.1,3.4,22.7,5c0.7,0.1,1.3,0.3,2,0.4c29.6,6.3,58.5-13.1,64.7-43.2
							C-224.3,99.3-225.9,87.3-230.6,76.8"/>
						<path id="Fill-7_3_" blush:color="Outfit-500" blush:i="0.4.1.1.1.0.3" class="st1" d="M-84.6,97l-76.1,17.1l-23.3,5.2
							l-26.5-74c0,0,1.6-5.3,5.4-12.5l25.5-6l0.1,0l3.8-0.9l2.5-0.6l0.6-0.1c0.9-0.2,1.9-0.4,2.8-0.6c1.9-0.3,3.9-0.7,5.6-0.9
							c7.2-0.8,14.5-0.4,21.6,1.2c14.2,3,27.1,10.7,36.9,21.5c2.4,2.7,4.6,5.6,6.6,8.7c0.9,1.4,1.8,2.8,2.6,4.3
							c1,1.8,1.9,3.6,2.8,5.5c0.7,1.7,1.4,3.4,2.1,5.1c0.6,1.7,1.1,3.2,1.5,4.8l0.6,2.1l0.1,0.6l0.3,1.2l2.5,9.9L-84.6,97z"/>
						<path id="Fill-9_2_" blush:color="Skin-500" blush:i="0.4.1.1.1.0.4" class="st53" d="M-221,233.1c-0.2,1.7-0.6,3.4-1.1,5.1
							c-0.4,1.3-0.8,2.6-1.3,3.8c-1.9,4.7-4.6,9.1-8.2,12.8c-0.6,0.7-1.3,1.4-2.1,2c-0.8,0.8-1.7,1.5-2.7,2.2
							c-3.4,2.5-7.2,4.5-11.4,5.8c-0.1,0-0.1,0-0.1,0.1l-0.1,0l-12.6,3.9L-396,310.8l-110.9,34.3c-11.4,3.5-24.2,3-36-2.5
							c-18.4-8.6-28.8-29.5-28.8-50.3c0-8.1,1.6-16.1,4.8-23.4c0.3-0.6,0.6-1.2,0.8-1.8c7.7-17,15.8-32.8,23.6-49.8
							c8-17.6,16.1-35.1,24.2-52.7l12.2-26.3l12.4-26.2c3.3-7,6.7-14,10-21c5-10.3,10-20.6,15.1-30.9c0.1-0.1,0.1-0.2,0.2-0.3
							c13.3-26.7,45.2-38.1,72-25.2c11.8,5.7,20.8,15.1,26,26.3c5.7,12.1,7.1,26.2,3.2,39.7c-0.8,2.7-1.8,5.4-3,8.1
							c-1,2.3-2.1,4.6-3.2,6.8c-2.9,6.4-5.9,12.7-8.9,19c-4.2,8.8-8.5,17.7-12.7,26.5l-12.7,26.1l-12.9,26c-0.7,1.5-1.4,2.9-2.2,4.4
							c-0.5,1-1,1.9-1.4,2.9l153.6-30.5l0.6-0.1l3.6-0.7c0.2,0,0.3-0.1,0.5-0.1c13-2.4,26.1,2.3,34.8,11.7h0
							c3.9,4.2,6.9,9.3,8.7,15.2c0,0.1,0,0.1,0.1,0.2C-220.6,221.8-220.2,227.6-221,233.1"/>
						<path id="Fill-11_1_" blush:i="0.4.1.1.1.0.5" class="st2" d="M-130.9,329.3l-36.7-246.4c-0.1-0.7,0.9-0.9,1-0.2l55,246.6
							H-130.9z"/>
						<path id="Fill-13_2_" blush:color="Skin-500" blush:i="0.4.1.1.1.0.6" class="st53" d="M-502.4,347
							c10.7-3.2,21.3-6.5,31.9-9.8l31.9-9.9c21.3-6.7,42.5-13.3,63.7-20.1c21.2-6.8,42.4-13.9,63.6-20.8l31.7-10.6l31.7-10.8
							c20.1-6.9,31-29.1,24.3-49.7c-6.1-18.6-24.5-29.5-42.8-26.3l-32.9,5.7l-32.9,5.9c-21.9,4-43.8,8-65.7,12.1
							c-21.9,4.2-43.7,8.5-65.5,12.9l-32.7,6.6c-10.9,2.2-21.8,4.4-32.7,6.7c-29.6,6.2-48.7,35.7-42.6,65.9
							c6,30.2,34.9,49.7,64.5,43.6C-505.5,347.8-503.9,347.4-502.4,347"/>
						<path id="Fill-15_2_" blush:color="Skin-500" blush:i="0.4.1.1.1.0.7" class="st53" d="M-299.4,238.8
							c12.8-3.8,25.6-7.8,38.4-11.9l19.1-6.2l4.8-1.6c1.5-0.5,3.3-1.1,4.4-1.5c2.5-0.8,4.9-1.4,6.7-1.7c1.8-0.3,3-0.3,4.2-0.2
							c1.3,0.2,2.8,0.7,4.5,1.9c1.8,1.1,3.7,2.6,5.7,4.6l0.6,0.6l0.5,0.5c0.3,0.3,0.7,0.7,1,1.1l0.2,0.3l0.1,0.1l0.2,0.3l0.7,1
							l1.5,2.1c7.9,11.1,16,22,24.6,32.7c3.3,4.1,9.2,4.7,13.1,1.3c3.3-2.7,4.3-7.3,2.7-11.1c-5.3-12.7-11.1-25-17.1-37.3l-1.1-2.3
							l-0.6-1.2l-0.1-0.3l-0.2-0.4l-0.4-0.8c-0.6-1.1-1.2-2.1-1.9-3.1c-0.3-0.5-0.7-1-1.1-1.5l-0.6-0.7l-0.5-0.6
							c-2.4-3.2-5.3-6.5-8.8-9.6c-3.5-3.1-7.9-6-13-8c-5.1-2-10.7-2.9-15.6-2.9c-5,0-9.2,0.6-13.2,1.3c-2.2,0.4-3.6,0.7-5.3,1
							l-4.9,1l-19.7,4.1c-13.2,2.8-26.3,5.7-39.4,8.8c-11,2.6-17.8,13.8-15.3,25c2.5,11.2,13.5,18.2,24.5,15.6
							C-300.2,239-299.8,238.9-299.4,238.8"/>
						<path id="Fill-17_2_" blush:color="Skin-500" blush:i="0.4.1.1.1.0.8" class="st53" d="M-312.8,264.7l86.8-34.5l-13.1-1.9l0,0
							c-0.1-0.1,0.2,0,0.3,0.1l0.5,0.3c0.4,0.2,0.8,0.5,1.2,0.7c0.8,0.5,1.6,1.1,2.4,1.6c1.6,1.1,3.1,2.4,4.6,3.7
							c2.9,2.6,5.6,5.5,7.9,8.6c1.1,1.6,2.1,3.2,3,4.8c0.9,1.7,1.7,3.4,2.3,5.1c1.3,3.5,1.9,7.3,2,11.1l0,0.6
							c0.1,5.2,4.4,9.3,9.5,9.2c4.4-0.1,8-3.4,8.8-7.6c1.1-5.8,1.4-12,0.5-18c-0.4-3-1-6-1.9-8.9c-0.8-2.9-1.9-5.7-3.1-8.4
							c-2.4-5.4-5.4-10.5-8.9-15.1c-1.7-2.3-3.6-4.6-5.5-6.7c-1-1.1-2-2.1-3-3.2c-0.5-0.5-1.1-1-1.6-1.6l-0.9-0.8
							c-0.4-0.3-0.6-0.5-1.2-1l0,0c-3.6-2.6-7.9-3.3-11.9-2.3l-1.3,0.3l-90.1,24.1c-10.9,2.9-17.4,14.3-14.6,25.4
							c2.9,11.1,14,17.7,24.9,14.8C-314.2,265.3-313.5,265-312.8,264.7"/>
						<path id="Fill-19_2_" blush:color="Skin-500" blush:i="0.4.1.1.1.0.9" class="st53" d="M-328.7,275l86.8-34.6l-11.7-1l0,0
							c-0.2-0.1-0.2-0.1-0.1-0.1c0,0,0,0,0,0c0.1,0,0.1,0,0.1,0c0.1,0,0.3,0.1,0.4,0.2c0.3,0.1,0.6,0.3,1,0.4c0.7,0.3,1.4,0.7,2,1.1
							c1.4,0.8,2.7,1.8,3.9,2.9c2.5,2.1,4.7,4.6,6.4,7.5c1.8,2.8,3.1,6,3.9,9.5c0.8,3.5,1.2,7.3,1,11.3l0,0.3
							c-0.2,5.2,3.8,9.6,8.9,9.8c4.4,0.2,8.3-2.9,9.3-7.1c1.3-5.2,2.1-10.8,2.1-16.6c-0.1-5.8-1-11.7-3-17.4
							c-1.9-5.7-4.8-11.1-8.4-15.9c-1.8-2.4-3.7-4.7-5.9-6.9c-1.1-1.1-2.2-2.1-3.4-3.1c-0.6-0.5-1.2-1-1.9-1.5
							c-0.3-0.3-0.7-0.5-1-0.8l-0.6-0.4l-0.3-0.2c-0.1-0.1-0.2-0.1-0.5-0.3l0,0c-3.3-1.9-7.1-2.2-10.5-1.3l-1.2,0.3l-90.1,24.2
							c-10.9,2.9-17.4,14.3-14.6,25.5s14,17.8,25,14.9C-330.2,275.5-329.5,275.2-328.7,275"/>
						<path id="Fill-21_3_" blush:color="Skin-500" blush:i="0.4.1.1.1.0.10" class="st53" d="M-343,283.6l88-38.6l-15.4-3.1l0,0
							c0.2,0.1,0.6,0.4,0.9,0.7l1.1,0.8c0.7,0.6,1.5,1.2,2.2,1.8c1.4,1.2,2.9,2.5,4.2,3.8c2.7,2.5,5.1,5.2,6.8,7.7
							c0.9,1.2,1.5,2.3,1.9,3.1c0.4,0.8,0.5,0.9,0.9,0.7c0.2-0.1,0.4-0.2,0.5-0.2c0.1,0,0.1,0.2,0,0.5c-0.3,0.6-1.4,1.3-2.7,2
							l-0.8,0.4c-4.6,2.3-6.5,7.9-4.2,12.6c1.9,4,6.2,5.9,10.3,5c2.8-0.6,5.8-1.5,9-3.5c1.6-1,3.2-2.3,4.7-4
							c1.5-1.7,2.7-3.7,3.6-5.9c0.8-2.2,1.3-4.4,1.4-6.5c0.2-2.1,0-4-0.2-5.8c-0.5-3.6-1.4-6.5-2.5-9.3c-2.1-5.4-4.7-9.9-7.5-14.2
							c-1.4-2.1-2.8-4.2-4.3-6.2c-0.7-1-1.5-2-2.3-3l-1.2-1.5c-0.4-0.5-0.8-0.9-1.4-1.6l0,0c-3.9-3.8-9.4-4.9-14.2-3.4l-1.2,0.4
							l-91.7,28.4c-10.8,3.3-16.9,14.9-13.6,25.9c3.3,11,14.7,17.1,25.5,13.8C-344.4,284.2-343.7,283.9-343,283.6"/>
						<path id="Fill-23_2_" blush:i="0.4.1.1.1.0.11" class="st2" d="M-193,247.3c-0.5,0-1-0.3-1.3-0.8c-0.1-0.2-10.6-22-23.5-27.5
							c-0.7-0.3-1-1.1-0.7-1.9c0.3-0.7,1.1-1.1,1.8-0.8c13.9,5.9,24.5,27.9,24.9,28.9c0.3,0.7,0,1.6-0.7,1.9
							C-192.6,247.3-192.8,247.3-193,247.3"/>
						<path id="Fill-25_2_" blush:i="0.4.1.1.1.0.12" class="st2" d="M-215.3,267.3c-0.1,0-0.1,0-0.2,0c-0.8-0.1-1.3-0.8-1.2-1.6
							c0-0.3,3.1-25.1-13-30.6c-0.7-0.2-1.1-1-0.9-1.8c0.2-0.7,1-1.1,1.7-0.9c7.6,2.6,12.6,9.3,14.4,19.4c1.3,7.4,0.5,14,0.4,14.3
							C-214,266.8-214.6,267.3-215.3,267.3"/>
						<path id="Fill-27_2_" blush:i="0.4.1.1.1.0.13" class="st2" d="M-235,273.3c-0.2,0-0.4,0-0.6-0.1c-0.7-0.3-1-1.2-0.7-1.9
							c0-0.1,3.9-8.8,0.4-16c-2.2-4.5-6.7-7.6-13.6-9.2c-0.8-0.2-1.2-0.9-1.1-1.7c0.2-0.8,0.9-1.2,1.7-1.1
							c7.7,1.8,12.9,5.4,15.5,10.7c4.1,8.5-0.2,18-0.4,18.4C-234,273-234.5,273.3-235,273.3"/>
						<path id="Fill-29_2_" blush:i="0.4.1.1.1.0.14" class="st2" d="M-262.2,269.3c-0.6,0-1.2-0.4-1.3-0.9
							c-0.2-0.7,0.2-1.5,0.9-1.7l5.9-1.9l-2.5-0.8c-0.7-0.2-1.2-1-0.9-1.7c0.2-0.7,1-1.1,1.8-0.9l6.8,2c0.6,0.2,1,0.7,1,1.3
							c0,0.6-0.4,1.1-1,1.3l-10.2,3.2C-261.9,269.3-262,269.3-262.2,269.3"/>
						<path id="Fill-31_2_" blush:i="0.4.1.1.1.0.15" class="st2" d="M-100.6,345.3h250l67-192H-24.9c-5.2,0-9.9,3.3-11.6,8.4
							L-100.6,345.3z"/>
						<path id="Fill-33_1_" blush:i="0.4.1.1.1.0.16" class="st54" d="M-80.6,345.3H165c0.8,0,1.6-0.5,1.8-1.3l62-177.9
							c2.2-6.2-2.4-12.8-8.9-12.8H-6.4c-6.1,0-11.4,3.9-13.5,9.7l-62.6,179.7C-82.9,343.9-82,345.3-80.6,345.3"/>
						<g id="Group-39_1_" transform="translate(490.000000, 136.000000)" blush:i="0.4.1.1.1.0.17">
							<g id="Clip-38_1_" blush:i="0.4.1.1.1.0.17.1">
							</g>
							<defs>
								<filter id="Adobe_OpacityMaskFilter_21_" filterUnits="userSpaceOnUse" x="-609.8" y="-14.4" width="396.6" height="268.6">
									<feColorMatrix  type="matrix" values="1 0 0 0 0  0 1 0 0 0  0 0 1 0 0  0 0 0 1 0"/>
								</filter>
							</defs>
							
								<mask maskUnits="userSpaceOnUse" x="-609.8" y="-14.4" width="396.6" height="268.6" id="standing-upperusing-laptop-2-mask-2_1_">
								<g blush:i="0.4.1.1.1.0.17.0.0" class="st55">
									<path id="standing-upperusing-laptop-2-path-1_1_" blush:i="0.4.1.1.0.0" class="st7" d="M-270,17c6.5,0,11,6.6,8.8,12.8
										l0,0l-62,178.3c-0.3,0.8-1,1.3-1.8,1.3l0,0h-245.5c-1.4,0-2.3-1.4-1.8-2.7l0,0l62.6-180c2-5.8,7.4-9.7,13.5-9.7l0,0H-270z"
										/>
								</g>
							</mask>
							<polygon id="Fill-37_2_" blush:i="0.4.1.1.1.0.17.2" class="st56" points="-301.7,-14.4 -609.8,202.1 -531.4,254.2 
								-213.2,53.3 							">
							</polygon>
						</g>
						<path id="Fill-35_1_" blush:i="0.4.1.1.1.0.18" class="st7" d="M62.5,243.8c-1,7.5,4.1,13.5,11.5,13.5c7.4,0,14.2-6,15.2-13.5
							c1-7.5-4.1-13.5-11.5-13.5C70.4,230.3,63.6,236.3,62.5,243.8"/>
						<path id="Fill-40_2_" blush:i="0.4.1.1.1.0.19" class="st54" d="M-218.6,346.3h306v-18h-288.7
							C-210.8,328.3-218.6,336.4-218.6,346.3"/>
						<path id="Fill-42_1_" blush:i="0.4.1.1.1.0.20" class="st7" d="M172,328.3H-92.2c-0.8,0-1.4-0.7-1.4-1.5
							c0-0.8,0.6-1.5,1.4-1.5H172c0.8,0,1.4,0.7,1.4,1.5C173.4,327.6,172.8,328.3,172,328.3"/>
						<path id="Fill-44_1_" blush:color="Outfit-500" blush:i="0.4.1.1.1.0.21" class="st1" d="M-329.6,45.3l-2.8,7.7l-23.8,66.3
							l-17.6-3.9l-20.9-4.7L-482.4,91l-1.2-0.3c4.9-10.4,9.9-20.7,15-31c0.1-0.1,0.1-0.2,0.2-0.3c1.1-2.6,2.3-5.1,3.8-7.6
							c0.5-1,1.1-2,1.8-2.9c3.7-5.8,8.2-11,13.3-15.4c10.2-8.9,22.9-14.7,36.3-16.5c6.7-0.9,13.5-0.8,20.1,0.2l2.5,0.4l2.2,0.5
							l1.1,0.2l2.3,0.5l9,2l35.9,8.2l3.5,0.8c2.4,4.1,4.1,7.8,5.2,10.6c0.3,0.8,0.6,1.6,0.9,2.2C-329.9,44.3-329.6,45.3-329.6,45.3"
							/>
						<path id="Fill-46_1_" blush:i="0.4.1.1.1.0.22" class="st2" d="M-382.2,135.3c-0.2,0-0.4,0-0.6-0.1c-0.7-0.3-1-1.2-0.7-1.9
							l22.3-51.2c0.3-0.7,1.1-1,1.8-0.7c0.7,0.3,1,1.2,0.7,1.9l-22.3,51.2C-381.2,135-381.7,135.3-382.2,135.3"/>
						<path id="Fill-48_1_" blush:i="0.4.1.1.1.0.23" class="st2" d="M-510.2,243.3c-0.6,0-1.2-0.4-1.3-1.1c-0.2-0.8,0.2-1.5,1-1.8
							l87.2-24.1c0.7-0.2,1.5,0.2,1.7,1c0.2,0.8-0.2,1.5-1,1.8l-87.2,24.1C-510,243.3-510.1,243.3-510.2,243.3"/>
						<path id="Fill-50_1_" blush:i="0.4.1.1.1.0.24" class="st2" d="M-367,101.3c-0.1,0-0.2,0-0.3,0l-109.2-24.2
							c-0.8-0.2-1.2-0.9-1.1-1.7c0.2-0.8,0.9-1.3,1.7-1.1l109.2,24.2c0.8,0.2,1.2,0.9,1.1,1.7C-365.8,100.9-366.4,101.3-367,101.3"
							/>
						<path id="Fill-52_1_" blush:i="0.4.1.1.1.0.25" class="st2" d="M-161.2,100.3c-0.6,0-1.2-0.5-1.4-1.1
							c-0.2-0.8,0.3-1.5,1.1-1.7l72.2-16.2c0.7-0.2,1.5,0.3,1.7,1.1c0.2,0.8-0.3,1.5-1.1,1.7l-72.2,16.2
							C-161,100.3-161.1,100.3-161.2,100.3"/>
						<path id="Fill-54_1_" blush:color="Skin-500" blush:i="0.4.1.1.1.0.26" class="st53" d="M-327.4,39.3c-0.1-3-0.2-5.7-0.2-8
							l8,1.9c0,0,0,0,0.1,0c0,0,0.1,0,0.1,0l10.1,2h0c23.6,3.4,47.6,4,71.3,2.1c2.8-0.2,5.5-0.5,8.2-0.8c3.3-0.4,6.6-0.9,9.9-1.4
							c1.2,33.1,2.7,74.4-48.2,73.3S-326.4,69.8-327.4,39.3z"/>
					</g>
				</g>
			</g>
			
				<g id="Head" transform="translate(445.000000, 415.000000) scale(1 1)" blush:component="Head" blush:height="360" blush:i="0.4.1.2" blush:value="Long Ponytail" blush:viewBox="-179.04000000000002 80.31055900621118 440.14 279.50310559006203" blush:width="373">
				
					<g id="Head_x2F_Long_Ponytail" blush:i="0.4.1.2.1" blush:viewBox="-179.04000000000002 80.31055900621118 440.14 279.50310559006203">
					<g id="Group-22" transform="translate(-178.000000, 82.000000)" blush:i="0.4.1.2.1.0">
						<g id="Group-3" transform="translate(299.000000, 56.887000)" blush:i="0.4.1.2.1.0.0">
							<g id="Clip-2" blush:i="0.4.1.2.1.0.0.1">
							</g>
							<defs>
								<filter id="Adobe_OpacityMaskFilter_22_" filterUnits="userSpaceOnUse" x="-571.6" y="17.2" width="138.5" height="137.3">
									<feColorMatrix  type="matrix" values="1 0 0 0 0  0 1 0 0 0  0 0 1 0 0  0 0 0 1 0"/>
								</filter>
							</defs>
							<mask maskUnits="userSpaceOnUse" x="-571.6" y="17.2" width="138.5" height="137.3" id="headlong-ponytail-mask-2_1_">
								<g blush:i="0.4.1.2.1.0.0.0.0" class="st57">
									<polygon id="headlong-ponytail-path-1_1_" blush:i="0.4.1.2.0.0" class="st7" points="-571.6,17.2 -433.1,17.2 
										-433.1,154.5 -571.6,154.5 									">
									</polygon>
								</g>
							</mask>
							<path id="Fill-1_4_" blush:color="Skin-500" blush:i="0.4.1.2.1.0.0.2" class="st58" d="M-443.6,145.6
								c-8.5,8.8-20.1,10.3-32.4,7.8c-31.3-6.3-67-38-67-38c-7.1-5.6-14.6-13.2-19.4-21.6l-0.2-0.4c-1.3-2.2-2.3-4.6-3.1-6.9
								c-0.4-1.1-0.7-2.2-0.9-3.4c0-0.1,0-0.2-0.1-0.3c-1.5-6.6-2.6-6.3-4.4-17.7c-2.6-16.1,4.2-30.4,18.6-38.2
								c19.5-10.5,44.7-13.2,65.5-4.3c0.1,0,0.1,0,0.2,0.1c2.4,1,4.8,2.3,7,3.7c20.1,12.4,31.4,37.2,39.6,58.4
								C-432.7,103.9-427.7,129.1-443.6,145.6"/>
						</g>
						<path id="Fill-4_2_" blush:color="Skin-500" blush:i="0.4.1.2.1.0.1" class="st53" d="M-188,138.1l13,110.6
							c2.6,21.8-13.1,41.6-34.9,44.2c-21.8,2.6-41.6-13.1-44.2-34.9c-0.3-2.3-0.3-4.8-0.2-7l6.5-111.2c1-16.5,15.2-29.2,31.7-28.2
							C-201.3,112.6-189.7,124-188,138.1"/>
						<path id="Fill-6_1_" blush:i="0.4.1.2.1.0.2" class="st2" d="M-179.6,209.6c0,0-9.3-1.5-21.5-7.9c-1.5-0.8-3,1.1-1.9,2.4
							l26.2,30.7L-179.6,209.6z"/>
						<path id="Fill-8_2_" blush:i="0.4.1.2.1.0.3" class="st2" d="M-250,178.5c0,0,3-1.8,5.1-4.9c0.3-0.5,1.1-0.3,1.2,0.2
							c0.8,3.9,1.4,14-7.3,22.4L-250,178.5z"/>
						<path id="Combined-Shape_2_" blush:color="Hair-500" blush:i="0.4.1.2.1.0.4" class="st59" d="M-187.9,79.4
							c0.1,0,0.1,0,0.2,0.1c2.4,1,4.8,2.3,7,3.7c-5.8,12-15,22.6-25.4,30.9c-8,6.4-16.9,11.7-26.2,15.9c2.8,7.3,4.8,14.3,6.1,20.9
							c0.3,0.8,0.4,1.7,0.4,2.5c0,3-1.8,5.9-4.8,7c-3.6,1.4-7.7-0.2-9.4-3.7l0,0l-3.7-7c-2.5-7-11.6-10.2-15.3-11.4
							c-2.8,0.6-5.7,1-8.6,1.4c-1.5-6.6-2.6-6.3-4.4-17.7c-2.6-16.1,4.2-30.4,18.6-38.2C-234,73.2-208.7,70.5-187.9,79.4z"/>
						<path id="Fill-12_1_" blush:color="Skin-500" blush:i="0.4.1.2.1.0.5" class="st53" d="M-240.4,161.6
							c-0.7,12.2-11.2,21.6-23.5,20.9c-12.2-0.7-21.6-11.2-20.9-23.5c0.7-12.2,11.2-21.6,23.5-20.9
							C-249.1,138.9-239.7,149.4-240.4,161.6"/>
						<path id="Fill-14_1_" blush:i="0.4.1.2.1.0.6" class="st2" d="M-254.6,163.1c-0.2,0-0.4,0-0.6-0.1l-17.4-7.3
							c-0.7-0.3-1.1-1.1-0.8-1.9c0.3-0.7,1.1-1.1,1.9-0.8l17.4,7.3c0.7,0.3,1.1,1.1,0.8,1.9C-253.5,162.8-254.1,163.1-254.6,163.1"
							/>
						<path id="Fill-16_1_" blush:i="0.4.1.2.1.0.7" class="st2" d="M-265.5,166.1c-0.2,0-0.3,0-0.5-0.1c-0.7-0.3-1.1-1.1-0.8-1.8
							l2.5-6.6c0.3-0.7,1.1-1.1,1.8-0.8c0.7,0.3,1.1,1.1,0.8,1.8l-2.5,6.6C-264.4,165.8-264.9,166.1-265.5,166.1"/>
						<path id="Fill-18_1_" blush:color="Hair-500" blush:i="0.4.1.2.1.0.8" class="st59" d="M-258.2,87.5
							c-14.4-20.2-42.8-29.1-66.1-20.8c-11.1,3.9-20.6,11.1-30.8,17c-10.2,5.9-21.8,10.6-33.4,8.7c-9.9-1.6-18.5-7.8-25.4-15
							c-6.9-7.3-12.4-15.7-18.8-23.4c-12.3-14.8-28-26.9-46.2-33.1c-18.1-6.2-38.7-6.3-56.2,1.7l-37.6,143
							c16.9-12.9,37.9-20.2,59.1-20.5c21.2-0.3,42.5,6.5,59.7,18.9c10.5,7.6,19.8,17.4,32.1,21.5c12.3,4.1,26.1,1.6,37.6-4.5
							c11.5-6.1,20.8-15.5,28.9-25.6c9.7-12.1,18.4-30.1,31.5-38.4c15.7-9.8,37-12.8,55.4-11.6L-258.2,87.5z"/>
						<path id="Fill-20_1_" blush:i="0.4.1.2.1.0.9" class="st60" d="M-272.5,106.2c-0.3,0-0.5,0-0.8-0.1c-1.4-0.4-2.2-1.9-1.8-3.3
							c0.1-0.5,3.7-11.5,13.7-18.7c1.2-0.9,2.9-0.6,3.7,0.6c0.9,1.2,0.6,2.9-0.6,3.7c-8.6,6.1-11.7,15.9-11.7,16
							C-270.3,105.5-271.4,106.2-272.5,106.2"/>
					</g>
				</g>
			</g>
			
				<g id="Expression" transform="translate(605.000000, 580.000000) scale(1 1)" blush:component="Expression" blush:height="100" blush:i="0.4.1.3" blush:value="Wink" blush:viewBox="15 20.92326139088729 90.00000000000001 59.35251798561153" blush:width="120">
				<g id="Expression_x2F_Wink" blush:i="0.4.1.3.1" blush:viewBox="15 20.92326139088729 90.00000000000001 59.35251798561153">
					<g id="Group-18" transform="translate(15.300000, 20.000000)" blush:i="0.4.1.3.1.0">
						<path id="Fill-1_5_" blush:i="0.4.1.3.1.0.0" class="st2" d="M-528.6,64.3C-528.6,64.3-528.6,64.3-528.6,64.3l-5.2,0
							c-0.8,0-1.5-0.7-1.5-1.5c0-0.8,0.7-1.5,1.5-1.5l5.2,0c0,0,0,0,0,0c1.1,0,2.1-0.5,2.8-1.4c0.7-0.9,0.9-2,0.6-3.1l-6.2-22.7
							c-0.2-0.8,0.3-1.6,1.1-1.8s1.6,0.3,1.8,1.1l6.2,22.7c0.5,2,0.1,4.1-1.1,5.7C-524.7,63.3-526.6,64.3-528.6,64.3"/>
						<path id="Fill-3_3_" blush:i="0.4.1.3.1.0.1" class="st2" d="M-486.5,24.9c-0.3,0-0.5-0.1-0.8-0.2
							c-16.3-9.5-30.1-0.5-30.6-0.1c-0.7,0.5-1.6,0.3-2.1-0.4c-0.5-0.7-0.3-1.6,0.4-2.1c0.6-0.4,15.8-10.4,33.8,0
							c0.7,0.4,1,1.3,0.5,2.1C-485.5,24.6-486,24.9-486.5,24.9"/>
						<g id="Group-7" transform="translate(52.000000, 14.837200)" blush:i="0.4.1.3.1.0.2">
							<g id="Clip-6" blush:i="0.4.1.3.1.0.2.1">
							</g>
							<defs>
								<filter id="Adobe_OpacityMaskFilter_23_" filterUnits="userSpaceOnUse" x="-572.3" y="16.3" width="37.2" height="15.3">
									<feColorMatrix  type="matrix" values="1 0 0 0 0  0 1 0 0 0  0 0 1 0 0  0 0 0 1 0"/>
								</filter>
							</defs>
							<mask maskUnits="userSpaceOnUse" x="-572.3" y="16.3" width="37.2" height="15.3" id="expressionwink-mask-2_1_">
								<g blush:i="0.4.1.3.1.0.2.0.0" class="st61">
									<polygon id="expressionwink-path-1_1_" blush:i="0.4.1.3.0.0" class="st7" points="-572.3,16.3 -535.2,16.3 -535.2,31.6 
										-572.3,31.6 									">
									</polygon>
								</g>
							</mask>
							<path id="Fill-5_3_" blush:i="0.4.1.3.1.0.2.2" class="st62" d="M-535.2,22.8c0,0-7.4,9.2-19.5,8.8
								c-5.1-0.2-11.1-2.1-17.7-7.2c0,0,6.4-7.3,17-8C-549.7,16-542.9,17.4-535.2,22.8"/>
						</g>
						<g id="Group-10_1_" transform="translate(67.000000, 14.837200)" blush:i="0.4.1.3.1.0.3">
							<g id="Clip-9" blush:i="0.4.1.3.1.0.3.1">
							</g>
							<defs>
								<filter id="Adobe_OpacityMaskFilter_24_" filterUnits="userSpaceOnUse" x="-572.6" y="16.3" width="22.4" height="15.3">
									<feColorMatrix  type="matrix" values="1 0 0 0 0  0 1 0 0 0  0 0 1 0 0  0 0 0 1 0"/>
								</filter>
							</defs>
							<mask maskUnits="userSpaceOnUse" x="-572.6" y="16.3" width="22.4" height="15.3" id="expressionwink-mask-4_1_">
								<g blush:i="0.4.1.3.1.0.3.0.0" class="st63">
									<polygon id="expressionwink-path-3_1_" blush:i="0.4.1.3.0.1" class="st7" points="-572.6,16.3 -550.2,16.3 -550.2,31.6 
										-572.6,31.6 									">
									</polygon>
								</g>
							</mask>
							<path id="Fill-8_3_" blush:i="0.4.1.3.1.0.3.2" class="st64" d="M-550.2,22.8c0,0-7.4,9.2-19.5,8.8c-1.7-2.1-2.7-4.6-2.9-7.5
								c-0.1-2.9,0.7-5.6,2.2-7.7C-564.7,16-557.9,17.4-550.2,22.8"/>
						</g>
						<g id="Group-13_1_" transform="translate(0.000000, 0.837200)" blush:i="0.4.1.3.1.0.4">
							<g id="Clip-12" blush:i="0.4.1.3.1.0.4.1">
							</g>
							<defs>
								<filter id="Adobe_OpacityMaskFilter_25_" filterUnits="userSpaceOnUse" x="-572.6" y="16.5" width="35.2" height="7.6">
									<feColorMatrix  type="matrix" values="1 0 0 0 0  0 1 0 0 0  0 0 1 0 0  0 0 0 1 0"/>
								</filter>
							</defs>
							<mask maskUnits="userSpaceOnUse" x="-572.6" y="16.5" width="35.2" height="7.6" id="expressionwink-mask-6_1_">
								<g blush:i="0.4.1.3.1.0.4.0.0" class="st65">
									<polygon id="expressionwink-path-5_1_" blush:i="0.4.1.3.0.2" class="st7" points="-572.6,16.5 -537.4,16.5 -537.4,24 
										-572.6,24 									">
									</polygon>
								</g>
							</mask>
							<path id="Fill-11_2_" blush:i="0.4.1.3.1.0.4.2" class="st66" d="M-571.1,24c-0.5,0-1-0.3-1.3-0.7c-0.4-0.7-0.2-1.6,0.5-2.1
								c18-10.5,33.2-0.5,33.8,0c0.7,0.5,0.9,1.4,0.4,2.1c-0.5,0.7-1.4,0.9-2.1,0.4c-0.6-0.4-14.3-9.4-30.6,0.1
								C-570.6,24-570.8,24-571.1,24"/>
						</g>
						<path id="Fill-14_2_" blush:i="0.4.1.3.1.0.5" class="st2" d="M-534.1,76.1c-6,0-9.2-4.4-10.1-6.9c-0.3-0.8,0.1-1.6,0.9-1.9
							c0.8-0.3,1.6,0.1,1.9,0.9c0.1,0.2,2.1,5.5,8.4,4.8c0.8-0.1,1.6,0.5,1.7,1.3c0.1,0.8-0.5,1.6-1.3,1.7
							C-533.1,76.1-533.6,76.1-534.1,76.1"/>
						<path id="Fill-16_2_" blush:i="0.4.1.3.1.0.6" class="st2" d="M-562.7,48.5c-0.6,0-1.1-0.3-1.3-0.9c-0.3-0.7,0.1-1.6,0.8-1.8
							l14.9-5.9l-14.4-6.1c-0.7-0.3-1.1-1.1-0.8-1.9c0.3-0.7,1.1-1.1,1.9-0.8l17.5,7.4c0.5,0.2,0.9,0.7,0.9,1.3
							c0,0.6-0.4,1.1-0.9,1.3l-18.1,7.2C-562.3,48.5-562.5,48.5-562.7,48.5"/>
					</g>
				</g>
			</g>
			
				<g id="Beard" transform="translate(445.000000, 415.000000) scale(1 1)" blush:color="Hair-500" blush:component="Beard" blush:height="360" blush:i="0.4.1.4" blush:value="None" blush:viewBox="652.75 630 0 0" blush:width="373">
				<g id="Beard_x2F_None" blush:i="0.4.1.4.0" blush:viewBox="652.75 630 0 0">
					<path id="Path-5-Copy" blush:color="Hair-500" blush:i="0.4.1.4.0.0" class="st67" d="M-378.4,248.5c4.9-3.5,10.7-4.1,17.2-1.9
						c6.6,2.3,11.2,4.3,13.5,11.8c0.5,1.6-0.4,3.3-2,3.8c-1.6,0.5-3.3-0.4-3.8-2c-1.8-5.7-5-6.2-9.7-7.9c-4.7-1.6-8.4-1.2-11.7,1.1
						c-1.3,1-3.2,0.7-4.2-0.7S-379.7,249.5-378.4,248.5z"/>
				</g>
			</g>
			
				<g id="Accesories" transform="translate(571.000000, 593.000000) scale(1 1)" blush:component="Accesories" blush:height="52" blush:i="0.4.1.5" blush:value="Round Glasses 3" blush:viewBox="0.7399999999999949 0.14772727272727337 147.25999999999996 51.70454545454545" blush:width="148">
				
					<g id="Accesories_x2F_Round_Glasses_3" blush:i="0.4.1.5.0" blush:viewBox="0.7399999999999949 0.14772727272727337 147.25999999999996 51.70454545454545">
					<g id="Group" blush:i="0.4.1.5.0.0">
						<path id="Fill-3_4_" blush:i="0.4.1.5.0.0.0" class="st68" d="M-450.1,20.5c-3.1,0-6.3,0.7-9.2,2c-5.3,2.5-9.3,6.8-11.3,12.3
							c-4.1,11.3,1.7,23.9,13,28c11.3,4.1,23.9-1.7,28-13c2-5.5,1.8-11.4-0.7-16.7c-2.5-5.3-6.8-9.3-12.3-11.3
							C-445.1,20.9-447.6,20.5-450.1,20.5L-450.1,20.5z M-450.2,67.8c-2.9,0-5.8-0.5-8.7-1.5c-13.2-4.8-20-19.5-15.2-32.6
							c2.3-6.4,7-11.5,13.2-14.3c6.2-2.9,13.1-3.2,19.5-0.8c6.4,2.3,11.5,7,14.3,13.2s3.2,13.1,0.8,19.5
							C-430,61.4-439.8,67.8-450.2,67.8L-450.2,67.8z"/>
						<path id="Fill-5_4_" blush:i="0.4.1.5.0.0.1" class="st68" d="M-505.4,20.5c-3.1,0-6.3,0.7-9.2,2c-5.3,2.5-9.3,6.8-11.3,12.3
							c-4.1,11.3,1.7,23.9,13,28s23.9-1.7,28-13c4.1-11.3-1.7-23.9-13-28C-500.3,21-502.9,20.5-505.4,20.5 M-505.4,67.8
							c-2.9,0-5.8-0.5-8.7-1.5c-13.2-4.8-20-19.5-15.2-32.6c2.3-6.4,7-11.5,13.2-14.3c6.2-2.9,13.1-3.2,19.5-0.8
							c13.2,4.8,20,19.5,15.2,32.6C-485.3,61.4-495,67.8-505.4,67.8"/>
						<path id="Fill-7_4_" blush:i="0.4.1.5.0.0.2" class="st68" d="M-527.7,37c-0.1,0-0.2,0-0.2,0l-41.8,5.6
							c-0.9,0.1-1.8-0.5-1.9-1.4c-0.1-0.9,0.5-1.7,1.4-1.9l41.8-5.6c0.9-0.1,1.8,0.5,1.9,1.4C-526.4,36-526.9,36.8-527.7,37"/>
						<path id="Fill-16_3_" blush:i="0.4.1.5.0.0.3" class="st68" d="M-481.5,40.5c-0.5,0-1-0.2-1.4-0.7c-0.6-0.8-0.5-1.9,0.3-2.5
							c4.2-3.4,8.5-2.2,10.2-1c0.8,0.6,1,1.7,0.5,2.5c-0.6,0.8-1.7,1-2.5,0.5c-0.3-0.2-2.9-1.7-6,0.8
							C-480.7,40.4-481.1,40.5-481.5,40.5"/>
					</g>
				</g>
			</g>
		</g>
	</g>
	
		<g id="Small_Objects" transform="translate(1790.000000, 479.000000) scale(1 1)" blush:component="Small Objects" blush:height="530" blush:i="0.5" blush:value="Baby Cactus" blush:viewBox="174.89999999999998 283.55000000000007 127.20000000000003 246.44999999999993" blush:width="477">
		
			<g id="Small_Objects_x2F_Baby_Cactus" blush:i="0.5.1" blush:viewBox="174.89999999999998 283.55000000000007 127.20000000000003 246.44999999999993">
			<g id="Group-33_1_" transform="translate(175.000000, 284.000000)" blush:i="0.5.1.0">
				<g id="Group-109" blush:i="0.5.1.0.0">
					<path id="Fill-69" blush:i="0.5.1.0.0.0" class="st69" d="M-538.1,175.5c-10.4-18-14-39.8-10-60.2c2.2-11.3,6.8-22.3,14.9-30.5
						c8.1-8.2,19.9-13,31.2-11c12.7,2.2,22.9,12.9,26.7,25.2c3.9,12.3,2.1,25.8-2.6,37.8c-4.7,12-12,22.7-19.6,33.1"/>
					<path id="Fill-71" blush:i="0.5.1.0.0.1" class="st69" d="M-489.3,94.8c3.5-5.6,8.3-10.6,14.5-13.1c6.1-2.4,13.7-2,18.8,2.2
						c5.4,4.4,7.4,12.4,5.1,19c-2.3,6.6-8.3,11.6-15.1,13.3c-6.8,1.7-14.2,0.1-20.1-3.5"/>
					<path id="Fill-73" blush:i="0.5.1.0.0.2" class="st69" d="M-528.2,89.5c-6.1-7.4-12.4-14.8-16.5-23.4
						c-4.2-8.6-6.1-18.7-3.4-27.9c2.8-9.2,11-17,20.5-17.5c8.5-0.4,16.7,5.2,20.9,12.6s4.9,16.5,3.7,24.9
						c-1.3,8.5-4.4,16.5-7.4,24.5"/>
					<path id="Fill-75" blush:i="0.5.1.0.0.3" class="st48" d="M-469.6,160.7h-102.7l18.1,82.6c3.4,15.6,17.2,18.2,33.2,18.2
						c16,0,29.8-2.6,33.2-18.2L-469.6,160.7z"/>
					<path id="Fill-77" blush:i="0.5.1.0.0.4" class="st2" d="M-499.4,78.2c-0.2,0-0.4-0.1-0.6-0.2c-0.5-0.3-0.6-0.9-0.3-1.4
						l2.6-3.9c0.3-0.5,0.9-0.6,1.4-0.3c0.5,0.3,0.6,0.9,0.3,1.4l-2.6,3.9C-498.7,78.1-499.1,78.2-499.4,78.2"/>
					<path id="Fill-79" blush:i="0.5.1.0.0.5" class="st2" d="M-492.3,101.7c-0.2,0-0.5-0.1-0.7-0.3l-2.2-2c-0.4-0.4-0.4-1-0.1-1.4
						c0.4-0.4,1-0.4,1.4-0.1l2.2,2c0.4,0.4,0.4,1,0.1,1.4C-491.8,101.5-492,101.7-492.3,101.7"/>
					<path id="Fill-81" blush:i="0.5.1.0.0.6" class="st2" d="M-518,121.7c-0.2,0-0.4-0.1-0.6-0.2c-0.4-0.3-0.5-1-0.2-1.4l3-3.8
						c0.3-0.4,1-0.5,1.4-0.2c0.4,0.3,0.5,1,0.2,1.4l-3,3.8C-517.4,121.6-517.7,121.7-518,121.7"/>
					<path id="Fill-83" blush:i="0.5.1.0.0.7" class="st2" d="M-544.4,110.6c-0.2,0-0.4-0.1-0.6-0.2l-5-3.7c-0.4-0.3-0.5-1-0.2-1.4
						c0.3-0.4,1-0.5,1.4-0.2l5,3.7c0.4,0.3,0.5,1,0.2,1.4C-543.8,110.4-544.1,110.6-544.4,110.6"/>
					<path id="Fill-85" blush:i="0.5.1.0.0.8" class="st2" d="M-525.9,24.3c-0.6,0-1-0.4-1-1V18c0-0.6,0.4-1,1-1s1,0.4,1,1v5.2
						C-524.9,23.8-525.4,24.3-525.9,24.3"/>
					<path id="Fill-87" blush:i="0.5.1.0.0.9" class="st2" d="M-508.3,41.4c-0.4,0-0.8-0.2-0.9-0.6c-0.2-0.5,0.1-1.1,0.6-1.3
						l5.8-2.2c0.5-0.2,1.1,0.1,1.3,0.6c0.2,0.5-0.1,1.1-0.6,1.3l-5.8,2.2C-508.1,41.4-508.2,41.4-508.3,41.4"/>
					<path id="Fill-89" blush:i="0.5.1.0.0.10" class="st2" d="M-529.1,56.1c-0.2,0-0.4-0.1-0.6-0.2l-4.1-2.8
						c-0.5-0.3-0.6-0.9-0.3-1.4c0.3-0.5,0.9-0.6,1.4-0.3l4.1,2.8c0.5,0.3,0.6,0.9,0.3,1.4C-528.5,56-528.8,56.1-529.1,56.1"/>
					<path id="Fill-91" blush:i="0.5.1.0.0.11" class="st2" d="M-462.5,84.9c-0.1,0-0.2,0-0.3-0.1c-0.5-0.2-0.8-0.7-0.6-1.3l2.2-6.7
						c0.2-0.5,0.7-0.8,1.3-0.6c0.5,0.2,0.8,0.7,0.6,1.3l-2.2,6.7C-461.7,84.6-462.1,84.9-462.5,84.9"/>
					<path id="Fill-93" blush:i="0.5.1.0.0.12" class="st2" d="M-448,101.7h-6.7c-0.6,0-1-0.4-1-1s0.4-1,1-1h6.7c0.6,0,1,0.4,1,1
						S-447.5,101.7-448,101.7"/>
					<path id="Fill-95" blush:i="0.5.1.0.0.13" class="st2" d="M-473.2,106.9c-0.3,0-0.5-0.1-0.7-0.3c-0.4-0.4-0.4-1,0.1-1.4
						l3.6-3.3c0.4-0.4,1-0.4,1.4,0.1c0.4,0.4,0.4,1-0.1,1.4l-3.6,3.3C-472.7,106.8-472.9,106.9-473.2,106.9"/>
					<path id="Fill-97" blush:i="0.5.1.0.0.14" class="st2" d="M-494.5,138.5c-0.1,0-0.2,0-0.2,0c-0.5-0.1-0.9-0.7-0.8-1.2l1.1-4.8
						c0.1-0.5,0.7-0.9,1.2-0.8c0.5,0.1,0.9,0.7,0.8,1.2l-1.1,4.8C-493.7,138.2-494.1,138.5-494.5,138.5"/>
					<path id="Fill-99" blush:i="0.5.1.0.0.15" class="st2" d="M-531.2,149.3c-0.4,0-0.7-0.2-0.9-0.5l-2-3.7
						c-0.3-0.5-0.1-1.1,0.4-1.4c0.5-0.3,1.1-0.1,1.4,0.4l2,3.7c0.3,0.5,0.1,1.1-0.4,1.4C-530.9,149.2-531,149.3-531.2,149.3"/>
					<path id="Fill-101" blush:i="0.5.1.0.0.16" class="st2" d="M-489.3,152.3c-0.4,0-0.8-0.3-0.9-0.7c-0.2-0.5,0.1-1.1,0.6-1.3
						l5.4-1.9c0.5-0.2,1.1,0.1,1.3,0.6c0.2,0.5-0.1,1.1-0.6,1.3l-5.4,1.9C-489,152.2-489.2,152.3-489.3,152.3"/>
					<path id="Fill-103" blush:i="0.5.1.0.0.17" class="st2" d="M-533.2,85.8c-0.1,0-0.3,0-0.4-0.1l-6-2.4c-0.5-0.2-0.8-0.8-0.6-1.3
						c0.2-0.5,0.8-0.8,1.3-0.6l6,2.4c0.5,0.2,0.8,0.8,0.6,1.3C-532.4,85.6-532.8,85.8-533.2,85.8"/>
					<path id="Fill-105" blush:i="0.5.1.0.0.18" class="st2" d="M-546.9,45.1c-0.3,0-0.7-0.2-0.9-0.5l-2.8-4.8
						c-0.3-0.5-0.1-1.1,0.4-1.4c0.5-0.3,1.1-0.1,1.4,0.4l2.8,4.8c0.3,0.5,0.1,1.1-0.4,1.4C-546.5,45.1-546.7,45.1-546.9,45.1"/>
					<path id="Fill-107" blush:i="0.5.1.0.0.19" class="st2" d="M-546.9,140h-5c-0.6,0-1-0.4-1-1c0-0.6,0.4-1,1-1h5c0.6,0,1,0.4,1,1
						C-545.9,139.5-546.3,140-546.9,140"/>
				</g>
				<g id="Group-112" transform="translate(0.000000, 144.000000)" blush:i="0.5.1.0.1">
					<g id="Clip-111" blush:i="0.5.1.0.1.1">
					</g>
					<defs>
						<filter id="Adobe_OpacityMaskFilter_26_" filterUnits="userSpaceOnUse" x="-594.3" y="4.3" width="152.4" height="134.6">
							<feColorMatrix  type="matrix" values="1 0 0 0 0  0 1 0 0 0  0 0 1 0 0  0 0 0 1 0"/>
						</filter>
					</defs>
					<mask maskUnits="userSpaceOnUse" x="-594.3" y="4.3" width="152.4" height="134.6" id="small-objectsbaby-cactus-mask-2_1_">
						<g blush:i="0.5.1.0.1.0.0" class="st70">
							<path id="small-objectsbaby-cactus-path-1_1_" blush:i="0.5.0.0" class="st7" d="M-572.3,16.7l18.1,82.6
								c3.4,15.6,17.2,18.2,33.2,18.2l0,0c16,0,29.8-2.6,33.2-18.2l0,0l18.1-82.6"/>
						</g>
					</mask>
					<path id="Fill-110" blush:i="0.5.1.0.1.2" class="st71" d="M-548.3,138.9c-0.3,0-0.5-0.1-0.7-0.3c-0.4-0.4-0.4-0.9-0.1-1.3
						c24.6-32.1,56.1-58.1,87.1-83c-39.9,17.4-77,39.2-117.5,63.8c-0.4,0.3-1,0.2-1.3-0.2c-0.3-0.4-0.3-1,0.1-1.3
						c20.9-21.6,44.7-40.1,70.8-55.1c4.2-2.4,8.6-4.8,12.8-7.1c13.8-7.5,28-15.2,39.6-25.9c-45.6,15.1-88.4,38.5-129.8,61.2
						c-0.4,0.2-1,0.1-1.3-0.3c-0.3-0.4-0.2-1,0.1-1.3l69.2-62.4c6.3-5.7,12.9-11.6,18.5-18.2c-33.3,12-64.2,29.3-91.8,51.4
						c-0.4,0.3-1.1,0.3-1.4-0.2c-0.3-0.4-0.3-1.1,0.2-1.4c28.8-23,61-40.8,95.8-52.9c0.4-0.1,0.9,0,1.1,0.4c0.3,0.4,0.2,0.8,0,1.2
						c-6.2,7.9-13.7,14.6-21,21.2l-62.9,56.7c40.4-22.1,82.2-44.4,126.8-58.6c0.4-0.1,0.9,0,1.2,0.4c0.2,0.4,0.2,0.9-0.1,1.2
						c-12.4,12.4-28,21-43.2,29.2c-4.2,2.3-8.5,4.6-12.7,7c-23.6,13.5-45.3,30-64.6,49c40.2-24.2,77.2-45.6,117.6-62.6
						c0.5-0.2,1,0,1.2,0.4c0.3,0.4,0.2,1-0.2,1.3c-30.7,24.6-62.4,50-87.6,81.1c30.6-23.3,62.4-46.6,99.3-59.7
						c0.5-0.2,1.1,0.1,1.3,0.6c0.4,1,0.2,2.2-0.5,3.2c-0.7,1-1.8,1.5-2.8,1.5c-0.6,0-1-0.5-1-1c0-0.6,0.5-1,1-1
						c0.4,0,0.9-0.2,1.2-0.7c0-0.1,0.1-0.1,0.1-0.2c-38.5,14.1-71.6,39.3-103.6,63.7C-547.9,138.8-548.1,138.9-548.3,138.9"/>
				</g>
				<path id="Fill-113" blush:i="0.5.1.0.2" class="st2" d="M-473.2,174.1h-96.4c-0.6,0-1-0.4-1-1s0.4-1,1-1h96.4c0.6,0,1,0.4,1,1
					S-472.6,174.1-473.2,174.1"/>
			</g>
		</g>
	</g>
	<g id="Lamp" transform="translate(1922.000000, 516.000000)" blush:i="0.6">
		<path id="Fill-1_6_" blush:i="0.6.0" class="st2" d="M-254.8,499.8c-0.2,0-0.3,0-0.5-0.1c-0.8-0.3-1.3-1.2-1-2l84.5-256
			L-388.4,53.2c-0.7-0.6-0.7-1.6-0.2-2.3c0.6-0.7,1.6-0.7,2.3-0.2l217.4,189.1c0.5,0.4,0.7,1.1,0.5,1.7l-84.8,257.1
			C-253.5,499.4-254.1,499.8-254.8,499.8"/>
		<path id="Fill-3_5_" blush:i="0.6.1" class="st1" d="M-152.7,241.2c0,14.5-11.7,26.2-26.2,26.2s-26.2-11.7-26.2-26.2
			c0-14.5,11.7-26.2,26.2-26.2S-152.7,226.7-152.7,241.2"/>
		<path id="Fill-5_5_" blush:i="0.6.2" class="st2" d="M-178.9,233.8c-4,0-7.3,3.3-7.3,7.3c0,4,3.3,7.3,7.3,7.3s7.3-3.3,7.3-7.3
			C-171.6,237.1-174.9,233.8-178.9,233.8 M-178.9,251.7c-5.8,0-10.5-4.7-10.5-10.5s4.7-10.5,10.5-10.5c5.8,0,10.5,4.7,10.5,10.5
			S-173.1,251.7-178.9,251.7"/>
		<g id="Group-9" transform="translate(228.000000, 467.528000)" blush:i="0.6.3">
			<g id="Clip-8" blush:i="0.6.3.1">
			</g>
			<defs>
				<filter id="Adobe_OpacityMaskFilter_27_" filterUnits="userSpaceOnUse" x="-572.6" y="17" width="198.6" height="22.3">
					<feColorMatrix  type="matrix" values="1 0 0 0 0  0 1 0 0 0  0 0 1 0 0  0 0 0 1 0"/>
				</filter>
			</defs>
			<mask maskUnits="userSpaceOnUse" x="-572.6" y="17" width="198.6" height="22.3" id="mastersceneworking-from-home-mask-32_1_">
				<g blush:i="0.6.3.0.0" class="st72">
					<polygon id="mastersceneworking-from-home-path-31_1_" class="st7" points="-572.6,17 -374,17 -374,39.3 -572.6,39.3 					"/>
				</g>
			</mask>
			<path id="Fill-7_5_" blush:i="0.6.3.2" class="st73" d="M-396.3,17h-154c-12.3,0-22.3,10-22.3,22.3H-374C-374,27-384,17-396.3,17
				"/>
		</g>
		<path id="Fill-10_1_" blush:i="0.6.4" class="st1" d="M-439,208.8L-565.8,82l31.5-31.5c35-35,91.8-35,126.8,0
			c35,35,35,91.8,0,126.8L-439,208.8z"/>
		<path id="Fill-12_2_" blush:i="0.6.5" class="st1" d="M-398,82.8l-41.8-41.8l20.2-20.2c6.1-6.1,16.1-6.1,22.2,0l19.6,19.6
			c6.1,6.1,6.1,16.1,0,22.2L-398,82.8z"/>
		<g id="Group-16_1_" transform="translate(0.000000, 58.528000)" blush:i="0.6.6">
			<g id="Clip-15" blush:i="0.6.6.1">
			</g>
			<defs>
				<filter id="Adobe_OpacityMaskFilter_28_" filterUnits="userSpaceOnUse" x="-572.6" y="16.6" width="141.1" height="141.1">
					<feColorMatrix  type="matrix" values="1 0 0 0 0  0 1 0 0 0  0 0 1 0 0  0 0 0 1 0"/>
				</filter>
			</defs>
			
				<mask maskUnits="userSpaceOnUse" x="-572.6" y="16.6" width="141.1" height="141.1" id="mastersceneworking-from-home-mask-34_1_">
				<g blush:i="0.6.6.0.0" class="st74">
					<polygon id="mastersceneworking-from-home-path-33_1_" class="st7" points="-572.6,16.6 -431.5,16.6 -431.5,157.7 
						-572.6,157.7 					"/>
				</g>
			</mask>
			<path id="Fill-14_3_" blush:i="0.6.6.2" class="st75" d="M-439,150.3c-17.4,17.4-59.8,3.3-94.6-31.5
				c-34.8-34.8-49-77.2-31.5-94.6c13-13,39.8-8.4,67.1,9.1c9.3,6,18.7,13.5,27.6,22.4c8.9,8.9,16.4,18.2,22.4,27.6
				C-430.5,110.5-426,137.3-439,150.3"/>
		</g>
		<path id="Fill-17_3_" blush:i="0.6.7" class="st60" d="M-454.6,150.5c-14.4,14.4-37.8,14.4-52.2,0c-14.4-14.4-14.4-37.8,0-52.3
			c2.6-2.6,5.6-4.8,8.8-6.5c9.3,6,18.7,13.5,27.6,22.4c8.9,8.9,16.4,18.2,22.4,27.6C-449.8,144.9-451.9,147.8-454.6,150.5"/>
		<path id="Fill-19_3_" blush:i="0.6.8" class="st2" d="M-390.4,76.8c-0.7,0-1.3-0.4-1.5-1c-0.1-0.2-9.6-25-40.4-41.5
			c-0.8-0.4-1.1-1.4-0.7-2.2c0.4-0.8,1.4-1.1,2.2-0.7c31.9,17.2,41.5,42.2,41.9,43.3c0.3,0.8-0.1,1.8-0.9,2.1
			C-390,76.7-390.2,76.8-390.4,76.8"/>
		<path id="Fill-21_4_" blush:i="0.6.9" class="st2" d="M-146.5,503.7h-198.1c-0.9,0-1.6-0.7-1.6-1.6s0.7-1.6,1.6-1.6h198.1
			c0.9,0,1.6,0.7,1.6,1.6S-145.6,503.7-146.5,503.7"/>
	</g>
	<g id="Table" transform="translate(796.000000, 1006.000000)" blush:i="0.7">
		<path id="Fill-1_7_" blush:i="0.7.0" class="st2" d="M-387.6,594.9c-0.7,0-1.4-0.5-1.5-1.2L-532.6,74.2c-0.2-0.9,0.3-1.7,1.1-2
			c0.9-0.2,1.7,0.3,2,1.1L-386,592.9c0.2,0.9-0.3,1.7-1.1,2C-387.3,594.9-387.4,594.9-387.6,594.9"/>
		<path id="Fill-3_6_" blush:i="0.7.1" class="st2" d="M-537.8,594.9c-0.1,0-0.3,0-0.4-0.1c-0.9-0.2-1.4-1.1-1.1-2l143.5-519.5
			c0.2-0.9,1.1-1.4,2-1.1c0.9,0.2,1.4,1.1,1.1,2l-143.5,519.5C-536.5,594.4-537.1,594.9-537.8,594.9"/>
		<path id="Fill-5_6_" blush:i="0.7.2" class="st2" d="M1081.2,594.9c-0.7,0-1.4-0.5-1.5-1.2L936.2,74.2c-0.2-0.9,0.3-1.7,1.1-2
			c0.9-0.2,1.7,0.3,2,1.1l143.5,519.5c0.2,0.9-0.3,1.7-1.1,2C1081.5,594.9,1081.4,594.9,1081.2,594.9"/>
		<path id="Fill-7_6_" blush:i="0.7.3" class="st2" d="M931,594.9c-0.1,0-0.3,0-0.4-0.1c-0.9-0.2-1.4-1.1-1.1-2l143.5-519.5
			c0.2-0.9,1.1-1.4,2-1.1c0.9,0.2,1.4,1.1,1.1,2L932.5,593.7C932.3,594.4,931.7,594.9,931,594.9"/>
		<g id="Clip-10" blush:i="0.7.5">
		</g>
		<defs>
			<filter id="Adobe_OpacityMaskFilter_29_" filterUnits="userSpaceOnUse" x="-572.6" y="16.3" width="1679.8" height="57.5">
				<feColorMatrix  type="matrix" values="1 0 0 0 0  0 1 0 0 0  0 0 1 0 0  0 0 0 1 0"/>
			</filter>
		</defs>
		
			<mask maskUnits="userSpaceOnUse" x="-572.6" y="16.3" width="1679.8" height="57.5" id="mastersceneworking-from-home-mask-36_1_">
			<g blush:i="0.7.4.0" class="st76">
				<polygon id="mastersceneworking-from-home-path-35_1_" class="st7" points="-572.6,594.9 1107.2,594.9 1107.2,16.3 -572.6,16.3 
									"/>
			</g>
		</mask>
		<polygon id="Fill-9_3_" blush:i="0.7.6" class="st77" points="-572.6,73.8 1107.2,73.8 1107.2,16.3 -572.6,16.3 		">
		</polygon>
		<defs>
			<filter id="Adobe_OpacityMaskFilter_30_" filterUnits="userSpaceOnUse" x="-571.2" y="34" width="1676.3" height="4">
				<feColorMatrix  type="matrix" values="1 0 0 0 0  0 1 0 0 0  0 0 1 0 0  0 0 0 1 0"/>
			</filter>
		</defs>
		<mask maskUnits="userSpaceOnUse" x="-571.2" y="34" width="1676.3" height="4" id="mastersceneworking-from-home-mask-36_2_">
			<g blush:i="0.7.4.0" class="st78">
				<polygon id="mastersceneworking-from-home-path-35_2_" class="st7" points="-572.6,594.9 1107.2,594.9 1107.2,16.3 -572.6,16.3 
									"/>
			</g>
		</mask>
		<path id="Fill-11_3_" blush:i="0.7.7" class="st79" d="M1103.1,38H-569.2c-1.1,0-2-0.9-2-2s0.9-2,2-2h1672.3c1.1,0,2,0.9,2,2
			S1104.2,38,1103.1,38"/>
	</g>
</g>
</svg>
