<?xml version="1.0" encoding="utf-8"?>
<!-- Generator: Adobe Illustrator 25.2.3, SVG Export Plug-In . SVG Version: 6.00 Build 0)  -->
<svg version="1.1" id="Layer_1" xmlns="http://www.w3.org/2000/svg" xmlns:xlink="http://www.w3.org/1999/xlink" x="0px" y="0px"
	 viewBox="0 0 161.2 166.1" style="enable-background:new 0 0 161.2 166.1;" xml:space="preserve">
<style type="text/css">
	.st0{fill:#FFFFFF;}
	.st1{fill:#FFFFFF;stroke:#000000;stroke-width:7;stroke-miterlimit:10;}
</style>
<rect y="4.9" class="st0" width="161.2" height="161.2"/>
<rect x="14.4" y="16.7" class="st1" width="131.7" height="131.7"/>
<g>
	<path d="M51.7,84c-1.4,2.5-3.6,4.6-6.4,6.1c-2.8,1.5-6.2,2.2-10.3,2.2h-6.2v15.8H13.3V58.5H35c6.1,0,10.7,1.5,14,4.6
		c3.2,3.1,4.9,7.2,4.9,12.4C53.8,78.6,53.1,81.5,51.7,84z M38.1,75.5c0-3-1.6-4.5-4.8-4.5h-4.4v9.1h4.4
		C36.5,80.1,38.1,78.6,38.1,75.5z"/>
	<path d="M58.8,77.5c1.4-3.1,3.4-5.4,5.8-7c2.5-1.6,5.2-2.4,8.3-2.4c2.6,0,4.8,0.5,6.7,1.6c1.9,1,3.3,2.5,4.3,4.3v-5.4h15.5v39.5
		H83.9v-5.4c-1,1.8-2.4,3.3-4.3,4.3c-1.9,1-4.1,1.6-6.7,1.6c-3.1,0-5.9-0.8-8.3-2.4c-2.5-1.6-4.4-3.9-5.8-7
		c-1.4-3.1-2.1-6.7-2.1-10.8C56.6,84.2,57.3,80.6,58.8,77.5z M82.3,83.4c-1.1-1.2-2.4-1.8-4.1-1.8c-1.7,0-3.1,0.6-4.1,1.8
		c-1.1,1.2-1.6,2.8-1.6,4.9c0,2.1,0.5,3.7,1.6,4.9c1.1,1.2,2.5,1.8,4.1,1.8c1.7,0,3.1-0.6,4.1-1.8c1.1-1.2,1.6-2.8,1.6-4.9
		C83.9,86.2,83.3,84.6,82.3,83.4z"/>
	<path d="M144.6,72.9c2.5,3,3.8,7.1,3.8,12.3v22.9h-15.5V87.1c0-1.9-0.5-3.3-1.5-4.4c-1-1.1-2.3-1.6-4-1.6c-1.7,0-3.1,0.5-4.1,1.6
		c-1,1.1-1.5,2.6-1.5,4.4v20.9h-15.5V68.6h15.5v6c1.2-1.9,2.8-3.4,4.9-4.5c2-1.2,4.4-1.8,7.2-1.8C138.5,68.3,142,69.8,144.6,72.9z"
		/>
</g>
</svg>
