<?xml version="1.0" encoding="utf-8"?>
<!-- Generator: Adobe Illustrator 25.2.3, SVG Export Plug-In . SVG Version: 6.00 Build 0)  -->
<svg version="1.1" id="Layer_1" xmlns="http://www.w3.org/2000/svg" xmlns:xlink="http://www.w3.org/1999/xlink" x="0px" y="0px"
	 viewBox="0 0 580.1 188.5" style="enable-background:new 0 0 580.1 188.5;" xml:space="preserve">
<style type="text/css">
	.st0{fill:#FFFFFF;stroke:#000000;stroke-width:9;stroke-miterlimit:10;}
	.st1{fill:#FFFFFF;}
	.st2{fill:#FFDE91;}
</style>
<rect x="36" y="20.3" class="st0" width="515" height="150"/>
<rect x="36" y="23.3" width="358" height="147"/>
<g>
	<path class="st1" d="M54.5,116.9c-4-2.9-6.1-7-6.4-12.6h17c0.2,2.9,1.5,4.4,3.9,4.4c0.9,0,1.6-0.2,2.2-0.6c0.6-0.4,0.9-1,0.9-1.9
		c0-1.2-0.6-2.2-1.9-2.9c-1.3-0.7-3.3-1.6-6-2.6c-3.3-1.2-6-2.3-8.1-3.4c-2.1-1.1-4-2.7-5.5-4.8c-1.5-2.1-2.3-4.8-2.2-8.1
		c0-3.3,0.9-6.1,2.6-8.5c1.7-2.3,4-4.1,7-5.3c3-1.2,6.3-1.8,10-1.8c6.2,0,11.2,1.4,14.9,4.3s5.6,6.9,5.8,12.2H71.1
		c0-1.4-0.4-2.5-1.1-3.1c-0.7-0.6-1.5-0.9-2.4-0.9c-0.7,0-1.2,0.2-1.7,0.7c-0.4,0.5-0.6,1.1-0.6,1.9c0,1.2,0.6,2.1,1.9,2.8
		c1.3,0.7,3.3,1.6,6.1,2.7c3.2,1.2,5.9,2.4,8,3.5c2.1,1.1,3.9,2.6,5.4,4.6c1.5,2,2.3,4.4,2.3,7.4c0,3.1-0.8,5.9-2.3,8.4
		c-1.5,2.5-3.8,4.4-6.7,5.8c-2.9,1.4-6.4,2.1-10.4,2.1C63.4,121.2,58.4,119.7,54.5,116.9z"/>
	<path class="st1" d="M133.9,84.4c2.6,3.1,3.9,7.3,3.9,12.7v23.5H122V99.1c0-1.9-0.5-3.4-1.5-4.6c-1-1.1-2.4-1.7-4.1-1.7
		c-1.8,0-3.2,0.6-4.2,1.7c-1,1.1-1.5,2.7-1.5,4.6v21.5h-16V67.4h16v18.9c1.2-1.9,2.9-3.5,5-4.7c2.1-1.2,4.6-1.8,7.5-1.8
		C127.7,79.8,131.3,81.3,133.9,84.4z"/>
	<path class="st1" d="M146.2,74.6c-1.7-1.5-2.5-3.4-2.5-5.6c0-2.3,0.8-4.2,2.5-5.7c1.7-1.5,3.9-2.3,6.7-2.3c2.7,0,4.9,0.8,6.6,2.3
		c1.7,1.5,2.5,3.4,2.5,5.7c0,2.3-0.8,4.1-2.5,5.6c-1.7,1.5-3.9,2.2-6.6,2.2C150.1,76.8,147.8,76.1,146.2,74.6z M160.8,80v40.6h-16
		V80H160.8z"/>
	<path class="st1" d="M234.2,84.4c2.9,3.1,4.3,7.3,4.3,12.7v23.5h-15.9V99.1c0-1.7-0.5-3.1-1.5-4.1c-1-1-2.4-1.5-4.1-1.5
		c-1.8,0-3.2,0.5-4.2,1.5c-1,1-1.5,2.3-1.5,4.1v21.5h-15.9V99.1c0-1.7-0.5-3.1-1.5-4.1c-1-1-2.4-1.5-4.1-1.5c-1.8,0-3.2,0.5-4.2,1.5
		c-1,1-1.5,2.3-1.5,4.1v21.5h-16V80h16v5.5c1.2-1.7,2.7-3.1,4.7-4.2c2-1.1,4.3-1.6,7-1.6c2.9,0,5.5,0.6,7.8,1.9
		c2.3,1.3,4.1,3.1,5.4,5.4c1.5-2.1,3.4-3.9,5.7-5.2c2.3-1.4,4.8-2.1,7.6-2.1C227.4,79.8,231.4,81.3,234.2,84.4z"/>
	<path class="st1" d="M284.5,103.2h-25.7c0.2,3.5,1.7,5.3,4.4,5.3c1.7,0,3-0.8,3.7-2.4h16.9c-0.6,2.9-1.8,5.5-3.6,7.7
		c-1.8,2.3-4.2,4.1-7,5.4c-2.8,1.3-5.9,2-9.3,2c-4,0-7.6-0.8-10.8-2.5c-3.1-1.7-5.6-4.1-7.3-7.2c-1.8-3.1-2.6-6.8-2.6-11.1
		c0-4.2,0.9-7.9,2.6-11.1c1.8-3.1,4.2-5.6,7.3-7.2c3.1-1.7,6.7-2.5,10.8-2.5c4,0,7.6,0.8,10.8,2.5c3.1,1.7,5.6,4,7.3,7.1
		c1.8,3.1,2.6,6.7,2.6,10.9C284.8,101.1,284.7,102.1,284.5,103.2z M268.6,96.2c0-1.3-0.4-2.4-1.3-3.1c-0.9-0.7-1.9-1-3.2-1
		c-2.8,0-4.5,1.4-5,4.1H268.6z"/>
	<path class="st1" d="M329.1,84.4c2.6,3.1,3.9,7.3,3.9,12.7v23.5h-15.9V99.1c0-1.9-0.5-3.4-1.5-4.6c-1-1.1-2.4-1.7-4.1-1.7
		c-1.8,0-3.2,0.6-4.2,1.7c-1,1.1-1.5,2.7-1.5,4.6v21.5h-16V80h16v6.2c1.2-1.9,2.9-3.5,5-4.7c2.1-1.2,4.6-1.8,7.5-1.8
		C322.9,79.8,326.5,81.3,329.1,84.4z"/>
	<path class="st1" d="M361.4,81.2c1.9,1.1,3.4,2.6,4.4,4.4V80h15.9v39.9c0,3.8-0.7,7.2-2.1,10.4c-1.4,3.1-3.6,5.6-6.7,7.5
		c-3.1,1.9-7.1,2.8-11.9,2.8c-6.5,0-11.7-1.5-15.5-4.6c-3.8-3-6-7.2-6.5-12.4h15.7c0.4,2.1,2.2,3.2,5.2,3.2c1.9,0,3.3-0.5,4.4-1.4
		c1.1-1,1.6-2.8,1.6-5.4v-4.8c-1,1.9-2.5,3.3-4.4,4.4s-4.2,1.6-6.8,1.6c-3.2,0-6-0.8-8.6-2.5c-2.5-1.7-4.5-4.1-6-7.2
		c-1.5-3.1-2.2-6.9-2.2-11.1c0-4.3,0.7-8,2.2-11.1c1.5-3.1,3.5-5.5,6-7.2c2.5-1.7,5.4-2.5,8.6-2.5C357.2,79.5,359.5,80.1,361.4,81.2
		z M364.2,95.3c-1.1-1.2-2.5-1.8-4.2-1.8c-1.7,0-3.1,0.6-4.2,1.8c-1.1,1.2-1.7,2.9-1.7,5s0.6,3.8,1.7,5c1.1,1.2,2.5,1.8,4.2,1.8
		c1.7,0,3.1-0.6,4.2-1.8c1.1-1.2,1.7-2.9,1.7-5S365.3,96.5,364.2,95.3z"/>
	<path d="M440.6,95.9c-1.5,2.6-3.7,4.7-6.6,6.2s-6.4,2.3-10.5,2.3h-6.3v16.2h-16v-51h22.3c6.2,0,11,1.6,14.4,4.8
		c3.3,3.2,5,7.4,5,12.7C442.9,90.4,442.1,93.3,440.6,95.9z M426.7,87.2c0-3.1-1.7-4.7-5-4.7h-4.5v9.4h4.5
		C425,91.9,426.7,90.3,426.7,87.2z"/>
	<path d="M447.9,89.2c1.5-3.1,3.5-5.5,6-7.2c2.5-1.7,5.4-2.5,8.6-2.5c2.6,0,4.9,0.5,6.8,1.6c1.9,1.1,3.4,2.6,4.4,4.4V80h15.9v40.6
		h-15.9v-5.5c-1,1.9-2.5,3.3-4.4,4.4s-4.2,1.6-6.8,1.6c-3.2,0-6-0.8-8.6-2.5c-2.5-1.7-4.5-4.1-6-7.2c-1.5-3.1-2.2-6.9-2.2-11.1
		C445.7,96.1,446.5,92.4,447.9,89.2z M472.1,95.3c-1.1-1.2-2.5-1.8-4.2-1.8c-1.7,0-3.1,0.6-4.2,1.8c-1.1,1.2-1.7,2.9-1.7,5
		s0.6,3.8,1.7,5c1.1,1.2,2.5,1.8,4.2,1.8c1.7,0,3.1-0.6,4.2-1.8c1.1-1.2,1.7-2.9,1.7-5S473.2,96.5,472.1,95.3z"/>
	<path d="M536.2,84.4c2.6,3.1,3.9,7.3,3.9,12.7v23.5h-15.9V99.1c0-1.9-0.5-3.4-1.5-4.6c-1-1.1-2.4-1.7-4.1-1.7
		c-1.8,0-3.2,0.6-4.2,1.7c-1,1.1-1.5,2.7-1.5,4.6v21.5h-16V80h16v6.2c1.2-1.9,2.9-3.5,5-4.7c2.1-1.2,4.6-1.8,7.5-1.8
		C530,79.8,533.6,81.3,536.2,84.4z"/>
</g>
<circle class="st2" cx="153" cy="68.4" r="9.6"/>
<rect x="-614.7" y="45.1" class="st0" width="515" height="150"/>
<rect x="-614.7" y="48.1" width="358" height="147"/>
<rect x="-604.7" y="92.1" style="fill:none;" width="514" height="122"/>
<text transform="matrix(1 0 0 1 -604.6859 145.3718)"><tspan x="0" y="0" class="st1" style="font-family:'Poppins-Black'; font-size:72px;">Shimeng</tspan><tspan x="339.3" y="0" style="font-family:'Poppins-Black'; font-size:72px;"> Pan</tspan></text>
<circle class="st2" cx="-497.7" cy="93.1" r="9.6"/>
</svg>
